<mxfile host="app.diagrams.net" modified="2023-11-12T11:11:09.810Z" agent="Mozilla/5.0 (Windows NT 10.0; Win64; x64) AppleWebKit/537.36 (KHTML, like Gecko) Chrome/119.0.0.0 Safari/537.36" etag="EnnVAwQ9UefX9BrDpcSo" version="22.1.0" type="github">
  <diagram name="Page-1" id="BqLjTV1lZtpxf5OzmQXk">
    <mxGraphModel dx="1020" dy="460" grid="1" gridSize="10" guides="1" tooltips="1" connect="1" arrows="1" fold="1" page="1" pageScale="1" pageWidth="850" pageHeight="1100" math="0" shadow="0">
      <root>
        <mxCell id="0" />
        <mxCell id="1" parent="0" />
        <mxCell id="6bLsn4d3qPJfgGstx1OS-2" value="" style="shape=image;verticalLabelPosition=bottom;labelBackgroundColor=default;verticalAlign=top;aspect=fixed;imageAspect=0;image=data:image/png,iVBORw0KGgoAAAANSUhEUgAAAi8AAAJZCAYAAABhr9WYAAAACXBIWXMAABYlAAAWJQFJUiTwAAAgAElEQVR4nOydd3QV17X/eb/klX/ee3+8td5bL6+kvSQu2LglEW6JjU1xwR13Ow64J7bjlmo77jYW2KYZd8AYA67CTlzANIMoEiAEukKIJiRQB3WNxnb2b+0jzWju1a3SleaWj9baS9LcmTNn9nzmzPfus885w6wuWzB8AAMwAAMwAAMwYKWJD4b5XQEMH8AADMAADMAADFiIFyCgIYABGIABGIABK0N9QOQlBW4Chg9gAAZgAAZgwEa8AAENAQzAAAzAAAzYGekDIi8pcBMwfAADMAADMAADNuIFCGgIYAAGYAAGYMDOSB8QeUmBm4DhAxiAARiAARiwES9AQEMAAzAAAzAAA3ZG+oDISwrcBAwfwAAMwAAMwICNeAECGgIYgAEYgAEYsDPSB0ReUuAmYPgABmAABmAABmzECxDQEMAADMAADMCAnZE+IPKSAjcBwwcwAAMwAAMwYCNegICGAAZgAAZgAAbsjPQBkZcUuAkYPoABGIABGIABO3vFS96kYTJs2DAZljNFSvp8vkQm6mfDhklObsD3unZbQHJzotU5vjJK8iZJTs4kyRssv+aOlJwe36lNTBn/YfgABmAABqws8wHiJQPES0nuyB5RMUjiJW+SK1pc8ZLnt98wfAADMAADVpb6APHi+01IJ/EyUnIDfvsLwwcwAAMwYGW5DxAvxhEByZ0U3C0yLGdS+Bd1YInZtzcKMVIm5i4JER3e7qklveJExUUgPvES1P0VmCIT3TKGSc4k53yeY4Pq7hFBA6yv97y91iuSSnInBfvNlB+mSymwRCbmjIxrv9j1xfABDMAADFhZ7APESyQBEC7SEJgS8qKOIBg8YiDyPnGKl0g2aUls8ZKE+uZOiixeeiM+fS0opyhaPcx1JOpfDB/AAAzAgJXFPkC8eF6YbiRAowR9Xq7BIsONoHiO731he8VArwAqCYRLco0tXjQa0i1GvOV6ox/huo2SWN+w3Ua9x/RGUDS6Eo/fvKLLKTOR+mL4AAZgAAasLPYB4sX7bV+7ivIivCC9IickWdUVD674CCd+Ilks8RKcxxJOqIQVL8msb6ycl0BA8nKDu7bCRX+C6pE3pXt0lCOQEqovhg9gAAZgwMpiHyBejFAI7f4Y2Z1XEm+XUZ9oSCJDsuPIeRmgeBlwfSOIFzM8O1Y3TxRREkkcxq4vhg9gAAZgwMpiH2SueAn7oovyku6TKBqyX5jhwiktXpJZ33DiJShi1ZNUGwhzLfGKl4Tqi+EDGIABGLCy2AcZJ168SaS9o3LUAiF5JFFEhb6EQ0VQvC/hVBEvyaxvOPHibouQZ+N0P0XKWTEjqDzddAnVF8MHMAADMGBlsQ8yTrzE9w0+3EtYX5oBj9AJFQRekeEZ8hw2uTcFxEsy6xtVvPT6TbuRXB+HS9h1h4p7/euIlUTqi+EDGIABGLCy2AeZJ17iGGasEZne/aMNlU5gKG+QcBha8dJHsMUzVDqR+sYYbRTWguaaiXMIdNz1xfABDMAADFhZ7IOMFC9q3Wv9hL4oR3qiK17T0TIhyadOHkfovmFyY3ImeYb2+iFeeibZCy8IklDfSKONgibP65l0LuK+fSepC+7WS6S+GD6AARiAASuLfZCx4gXDBzAAAzAAAzBgZ6QPEC8pcBMwfAADMAADMAADNuIFCGgIYAAGYAAGYMDOSB8QeUmBm4DhAxiAARiAARiwES9AQEMAAzAAAzAAA3ZG+oDISwrcBAwfwAAMwAAMwICNeAECGgIYgAEYgAEYsDPSB0ReUuAmYPgABmAABmAABmzECxDQEMAADMAADMCAnZE+IPKSAjcBwwcwAAMwAAMwYCNegICGAAZgAAZgAAbsjPQBkZcUuAkYPoABGIABGIABG/ECBDQEMAADMAADMGBnpA+IvKTATcDwAQzAAAzAAAzYiBcgoCGAARiAARiAgcxkgMhLCtwEDB/AAAzAAAzAgI14AQIaAhiAARiAARiwM9IHRF4iOKaltU06rS7fbxCGD2AABmAABmDARrxEgqC5pVXuu+9+ueCCC+T000+XMWPGmL/Hjx8v559/vpx33nnG9G81Z7vz2bnnnivnnHOOMf3bu6+zj3NcqDnn0d/GLrzQ2IUXXSQXXXyxXHzJJXLpZZe5dsmllwbZZRMmyIQJlxvTv3UfPc5rWoZj+r+W7ZSvv805nfN76qDm1NO5Fudzc1zP/t7rcMzxyTXXXCuPPfa4tLa18xDSEMMADMAADAiRlyRBcMedd8r//M//uPa///u/WII+UL/993//d5D/vD594IEHabRotGAABmAABgTxkgQIthZvc1+6Rx55pJyvUYQLLzS/NXIwduxYY25U5fzz5dzzznM/Gz16tDGN1owbNy7I9HP9rfvqcVrmeI1QeMwbBfFGQsZ7IhwaMbnkkkvN585x+pmJylx6mTH93Husdz9nW7jzqznX40aPPNEkrb9em5rjB8cXzuf699FHH238qHbmmWeackeNGuUKmR/84Aeyd18FDRcNFwzAAAzAgJDzMkAIlq9YIf/1X/9lxMuEyy/noeqnH2+66Sbjw//8z/+UtWvzzTYVKypanKhM4abN+JdGCwZgAAZgQBAvA4Rgw4aN8q1vfcu8YC+//Aoeqn768ZZbbukjXvZXVsmPfvQjN/qypWgr/qXRggEYgAEYEMTLACHQaIDTbeQVL4ebmqWgcJPkr1svZTvLU+Jh06RXFQSbNm8xQuDAwWpp7+j0vV5qEydOcsXL6tVfuJGXI444wgiXb3/721K0tdj3emL4AAZgAAbstPUBQ6V7HFFQUGi6jfQFe/XV17gOWpu/Tv793//dvIyvv/4XvtykdevWy9Rnn5Unn3zK5LecfPLJJrdEI0VqRw8fbrZddtkEmTz5GZk+Y4YRXH7UddKkG/uIl4r9lUa86Pbvfve7iJcUePAxfAADMGClsQ8QLz2OWL9+g9tt5BUvX3yxxmxXUfPLX04cshuzbXuJPD15skmydeoVaQRPuO0qHjSB96mnn5Y9e/cNWb1vuulm9/zqO922r2K/SYLW7d/5znfoNkqBBx/DBzAAA1Ya+wDx4oluOCLhqquudh2kL2B9Eet2jSoM9g1Zt36D3HzLLfL9738/7FBk7drSCJGaCgHd5vzviBivoNHfxxxzrNx3//2yo2znkCbsOuJFu7iOOuooV7xs3lLkO/gYPoABGIABO219gHgJI16uvPKqIRcvmlvzpz89IP/3f//XR4ToNs3DefW112TpsmXy3vsfyCeffmq6XwoLN8lf/vpXY8s+/9yIlOOPP96InNBojIqYZ3Jzpa29Y0gSdh3xot1G3sgL4sX/Bx/DBzAAA1Ya+wDxEqbbyJuwu2bNWle8aDLqYNwEHZWjc6V4Iyzf+9735LrrrpclH34k20sCCZVXXV1jRM4f//gnOfHEE/t0Mak4GywBcfPNfbuNEC/+P+gYPoABGLAyyAeIlzDiRafYHyrx8sLs2SYa4QgLjZhot9WGjQVRj6utq5eqqgPG6uobIu5XU1tnRIyKIW8U5oc//KHMmTN3SLqNVLxot5Fzfh0l5Tf4GD6AARiAATttfYB4CSNedNROOPFy4403JdX5KiqcXBW1ESOOk7feWhh23wMHDppoyr333Wdm2B0xYoQRIGraTaQz6/7+938wk+1VVlX1OV4jLSqKvAJGzz1j5syhyXk5+mj33ExS5/+Dj+EDGIABK419gHjpcUR+/rqY3UbJFC+//e3v3Hll1HQq/vJdu4P20blbVq5aJddff715+Yeut6Rzpjjm/K9l6rDkG264wdQ9dGXsJ596yh0S7px72vTpg9pt5BUvZoZdn4ZxY/gABmAABuyM8AHixZN3Ek68eBN2kyVennv++aDRQRqt0O4d7z6afKsRFkdoqDDR/fW3rnh9xx13yLPPPidTpz4rN954o5nnxREkjpjRY3W4tJblLXvR4reDBIz+/frrcwZNvFRWHZAje0YbqXjZGKNLDMMHMAADMAADFuIlOeIlGaONvJEcFQ+33nqrmTHX+byltc2svOyIC0eEqMB57bXXpXjb9rCz6eoIIp0b5pVXXpVrrrnWnMOJyujfDz3056DzqIDxJvHq5HGJJgbH223kFS9qiBcaJV5MMAADMGAReUkP8aLRlZ/85CeuKNEclKbmFvdzTby94oorg+Z0ufbaa+WzpUsTPtfny5fLxIkT3SHTTln1DY3uPvPnv+l2Xek+umJ046HDgzLayJnnRU3XkaLhouGCARiAARiw+ukDuo1i5LwkU7xoRMURCipidEizV7joeR3hopPUzZw1a8AP94svvRS0KOJFF10sNTW17uePP/5EUARmytSpSZ/nRWfYdZYHQLzQWPHCggEYgAFrgD5AvCQgXgYyVFq7ZJwoh3bRePNQtBtIoySOwBg5cqQZNRRahgqcN96Yb0TQ5GeekUceeVSeeuppeeyxx83fkUbx6DWccsopbvl6ro5Oy50c77zzzw+aEC/caKVkiRdyXmi0eHHBAAzAgIV4Sf4Mu8kWLzriR0cMOQmy+oL3fn7HnXcGRWRKd5QFi5a6ejNE+sc//nHQzLmhywbo77NHj5aPP/mkTx10aQBvUu99993vfqZzyqigcuqgyxMks9vIK140f0cXwaTxovGCARiAARiwiLykbuRFoy7O4o76EvcmxmoExvlM52wJjZ68ueAtOemkk/osvqhiJScnR376058G5a2oaXmaCNzc0hpU1pairWaafmcfzYtxPrvt9tvdsvWzkkDpoIkXcl5osHhpwQAMwIA1AB/QbZRAwm5/V5X+858f7h0WffPNQRGZ8Rdc4IqO6TNmBB2n+SjeFaX1xf+zn/3MdBHpqCXt8lHTuj/66GPmM+8oJS1bk2VDZ/R16uK9ThVNzvpDatotlcxuI827cUQX4oVGixcXDMAADFiIl4FDoALAmXvFO8Pu6tVfDFi8nD9+vBmy/IMf/MBEeJztc+fOc4WECg3vMe++936QENHIhQqPcMOkHdPPXnrpZTm6Z0I4tYsvucTNb3FMk3adrqZ33n3P3a7zxbjHXXxJUsWLN/KisxnTcNFwwQAMwAAMWEReBi5e3OUBJoQXL/3pNtJ1fHTkkIoX75pJaldffY0rInSlaGd72c5y04XkCInzzz9fthZv61O2Rm5ChYmadvmoaHGO12UIvJ9/+NFf3BwZ7wraL7/8iiuY9Pz96TrS7qpQ8bJ3X4UbeVFDvNBg8dKCARiAAYvISxIiL/m94mXC5ZcnrdvIGYqsgkCXBHC2F20tNqJGtx9zzLFS3TN8WSeS06n9nfwTXbdIp9d3jtM8Fo3Y3H777aabSO2u3/xG3nxzgZngztnvYHW1SfB18lu8E8PpfDPHHHOM+UwTdZ0VphsaD8mpp57qdu888eSTAxIvKvx02+49e03UCfFCY8ULCwZgAAasJPiAnJcwCbveyMtAxYtGWzTqEpog+6c/PeCKmqnPPhsUqXEScPX3J59+6n6mEQwtzznOEQPO3xpFqdi/391fF3LUMvT8Ojzau85R7pQp7nG/+93v3e2/+MUvgibRG0i3kSNe9uzdZyI5zPNCo8WLCwZgAAYsxEvqixedql+FwIknnmjmafGO7lFRod00TuRD7cEHH3IFyTXXXOMKDv3tnY9FTRNsvULHyZ3xipTrrrvOFU/eUU4qkpwuoltuvdXd/us77nDPf9111ycl8hLabUTCLo0XLzAYgAEYsIi8JLfb6NLLLkuKeNFunNGjR7sTw3k/u+GGX7pdOs7waB05dMIJJ7hiRHNTnP2feOLJoHWIdCZc7Y7RpQPOOuss9xj9/UxurnucRm4cYfPZ0mXu9oLCTe71hua9OOWMHz8+bE5NPOJFy/aKF+8kdYgXGi1eXDAAAzBgIV6SI15ijTZKNGFXE2+1zO985ztBybqHDje5+SgqVhp61hvaWFAYtGijTpznHOMMqdYoiua3eM+j+TLnnHOO291zySWXup/pYo3f+973zHadidfZruc8/vgT3JwbzXfR7X/568dBXVHlu3YndM233XZb1G4jxAsNFi8tGIABGLAG6ANyXnocsWbtWle8eCMvAxEv+uJXcTJixAi586673O21dfVy7LEjjBDRafudbp78devd1aCPHj7c7WbSxRKd6f0vuvjisOea/eKLRhioaRKvCiRHKGnSrx57z733Bg2r1jL1XLris7PekQouneX3uOOPN8sUaHQnkWvWROJo3UZaP68ow/ABDMAADMCAhXhJHfGiAqG6pkYOHKwOWj1ahcLw4d2jfVRAOF0z69ZvcMXLscce6wqQneW7zDY178RyXvv0s8/cmXq1W2nX7j1uV5QjXu6+5x53fz2njizS7bris45O0u0qpOrrG0y9VTx582f6G3lR8eJEXtTHiBcaKl5WMAADMGAReUmOeAmX85KMSepCTUWBI15GjDhO6urrzfa1+evMuXS7Di12BIiuS6TnV/ESaQSQjixyxIuaRlB0uw6zdpYE8K5npOfUc+v2o48ebqJBybi2cOLFGSrt5NIgXmi0eHHBAAzAgIV4GTgE+esGZ7RRpETecePGuQm7mjwbKjQ0QqHRFN2uQsQRLzp6KBHxsmLFSlNWaK6MLsboCKXTTjvNRGiScW2Rhkp7xcv6DcywS8NNww0DMAADdr99QM7LIA+VjmSaA+OIFE2qdbbryB8nWVYnowuNvOjq1OHK8y7wqKbH6PY5c+a6s/h6R/noIo1ON5nmqSTruuISLywPQKPFiwsGYAAGuhAvaSdebr3tNlekLFy4yN2+YMFb7mif4cOHm7yXyqoqd6RRJPESGnnRYzTPRueX0f91dNOBgwfd/d96a6F7ntBh3IMhXjTnBfFCY8ULCwZgAAasJPiAyEuYeV4uv+KKpK1tFMl0DhdnkjjttnGSc3URQx2d5AibGTNnmmHMOtw6XvGi+2pezcxZs9y5YXTBRmdfFTWnn366O/rnpZdfHlTxEprzQuSFxosXGAzAAAxYiJfUHG0UzXQUjzM3i77UvUsH5C350J1YTgXL89OmyRFHHmn+vvrq2Am7uq9OYueUceaZZwaNdlqxcqX7mQqn+p55Zga724ih0jRWvLBgAAZgwCLyMrTiZdKkG5P64P35zw+7XTdXXHGlOyxZF2fUnBgnauJEaJwlA6KJF6c85xjdtnLlqqAh0hdf3Lvi9L333ZfUa4q1thHzvNBw8fKCARiAAWuAPqDbKAHxcuONNyX1odMclOOOO95EVHQGXhUt3tWjdZvTfeRESuIRL86++nva9OlB+2kE5oILLzTn1InjnOHYybKbb76ZyAsNEy8nGIABGJDB9AHiJYG1jZIdeXHWLPrVr38tdWHmWdG8Fa+ASUS8fP/73zf5MuH2ra2tMwnDjz76WNKvRwVetG4jFYjkvNCw07DDAAzAgIV4GTgEa9fmxxxtlMycl3hNIzDavaSCJFrCri7Q6NT/jDPOMKtGxyo70dlz4zH1Uayh0izMSKPFiwsGYAAGLMRLcsWLd7TRYA2VTsQOHqyOOdrIuzzAnXfe6VvDEEm8eIdKI15otHhxwQAMwICFeEnuPC/e9YMGa7RRIqZrGzni5dprrw27zyeffuqKF52iX7fNm/eGWYzxo7/8NWkz6MYy7VqLlrCLeKHB4qUFAzAAA9YAfUDOSxjxoiN/MkG83HrrreYYrfu5550npTvKBr2uN90UPWEX8UKjxYsLBmAABizEyyB0G0WIvAxGwm6i4sUrrEK7jZzRUjpcWbfpMGhHMKjpQozOmkeDZZFGG3mHStNtRMPFywsGYAAGrAH4gMhLAt1GfoqX7373uwmLFx0Gvfjtd+SII45w53UZP/4CaWvvMCLm5ltukbffedeMakK80JDwMoEBGIABK018gHjpccS6devDdhv5PdooVLxcddXVEUcbOeJFu4u8n338ySfmeGfSOo2EFG0tdq9X1z3yrjg92JGXjRsLfAcfwwcwAAMwYKetDxAvCYiXZI820jV/fve738v55483EZFf/OIX7gvfa+W7drviJdryAI54cXJevHbDDTe40RcVD4HSHeZ6tUxH1OgK1IM9SZ3WsaCg0HfwMXwAAzAAA3ba+gDxEka8XHnlVYMuXubOnSfHHjvCnb9Fc1qctYwefviRoNl2vZGX6667LuYkdb/61a/6fH7TzTe75S9atNiUr5PY/exnP3MnwNPjCwo3mf1ramtl6rPPmnKra2qTJl70ehEv/j/4GD6AARiw0tgHiJcwOS/erhlvzkuyxIt22Xin8NclAjQyMnz4cHc23XvuuTeseNHoTLRJ6vT4O+64o8/nOj+MI17eemuhu12HUKsgcgTMffffb7ZrZMZJ9B01apSUBEqTIl7UCnsEEoYPYAAGYAAGLMRLcsTL1VdfM6ji5ZFHHnVFysknnyxbiraa7RsLCuX4409woyD6v27X5NpYk9R5xctdv/lNVPGycOGioM90RWtnIccTTjhB2js6jeBwBI3aSSedJNU1NUkRL0ReaKx4YcEADMCAReRlaMRLshJ2dX0iRxhMmTI16DPtpnG6km688UZ31FAi4uU3d9+dkHj58KOP3HwZHZl0sLpaamrrzPn/7//+r09UJlHxsndfhVkEEvFCY8ULCwZgAAasJPiAbqMwOS+DLV50MUYn8qIv9cqqqqDPdX4W/VwFhb74a+vqXfESKeclaHmAu+7q87ke5815iSRejjrqKHNO57PlK1aYOjr1jTVPTLiFGREvNFa8sGAABmDASqIPEC8xEnb1Bexsv+GGXybF6Zo/4o1EzH7xxT6fO904DzzwoFnb6Hvf+17UeV68XT93hFnbSGfmDZfzEku8qL362muumFKRFO3adC4cp9trxYqV7qgqRhvRcPHyggEYgAEL8ZJcCHTW11jLA/ziFzck7XwaHXGiGcccc4yJrjifdXRaMmnSJCM0VDC89/4HcvTRw6OKF51obtnnn8unny0Nm1x72WUTTPRGE38XLHgrong58sgj+4iXrcXb3JFCKpJiJSPrWkpqtbV1rnj5/ve/z1BpGi5eXjAAAzAgyfABkZcw4iXSDLvJFC8rVq50Iy8qHFQgeD/X7honkjJy5Ejz8lfxMmHC5f06nw57Pu2000xCrgqLSOJFI0KaYOv9XIdPO+JF65XoubU8J3eGeV5ovGm8YQAGYMBCvCS/2+jaa3vzSjZvKXLFiy46mMyH7tJLL3OjL08++VTQZzqFvwoV53MnadbbpZWoaUSnqbnFlO3d/kHeEle86DlCIy8bNha44mXlylUJn7ehoTGom4y1jWi4eHnBAAzAgDUAHxB56XHEps1bXPFyyimnSG7uFDMS6PZf/cqIF31x5+TkyFNPPS3PPJNrbPLkZ4LMu11/P/30ZFNOpCHGd99zjytOLrr44j6fv/Pue66ocOaFibSq9EBMu3Vee+11eeON+eacKnBChZ1TB520z9muXV3PPf+8uV71iwowTUb2mn7229/9znRXOZGXTZs203DRcMEADMAADAjiZYAQNB46LMcdd5zpmtGXdLJMX9jF27bHHCGkQ5R1SHToPk70xREvkUYbDfYwcke8eJcvKN1RFiSuYpn69sQTTzS+5qGl4YYBGIABGLCIvAwcgldeedUsIOiIjmSYCo5t20vCnk8ngxs3bpwrTp7Jze2zz/z5b7ov/1QQL6tWrXa367BpJy8nHl/oiCP1MQ0WDRYMwAAMwIA1AB/QbRShC2XWCy/I7NkvGtO/nf9feullefnlV1zT/x3T//XlrKZ/6/6vvvpa0EiiUNNuKWcW20j5LGPHjnX3ueaa5HcbxTJvt5FXvGgEZd68N+SF2bONf2bOmtXHdP2kadOnG5+Eiyxh+AAGYAAGYMBCvKQXBG+/867bdaQ5NQ2Nh/rso0ObnW6Xc887b8jruH79hriHSmP4AAZgAAZgwBpkHxB58RmyQ4eb5PTTT3eTWXXkT7j9xowZYwTO/ff/FvFCw8DLAQZgAAYkm32AeEmBm6DdRU630K233hp2H80vyVvyocmTGer66dBmJ/LizJqL4QMYgAEYgAEL8ZK9EPz5zw+7Sa3jL7jA9/pEy3lBvPh/PzB8AAMwYGW5D4i8pMBN0InwdAZdjbzofChbirb6Xqd45nnB8AEMwAAMwICFeMleCDQR1xly/Nhjj6eseFmzZq3v9cHwAQzAAAzYWe0DIi8pYrrgopP3ctttt/len3CjjTShWBd/9Ls+GD6AARiAATurfYB4SRHT4dBO5OX44483q0T7XSfHvlizxtRNxQtDpf2/Hxg+gAEYsLLcB4iXFDGdhdc71b7OrOt3nRybO3eeES86Hw0Ju/7fDwwfwAAMWFnuA8RLilhNTa0ce+wId0mBO+680/c6OfbHP/7J1EmXTtAZiP2uD4YPYAAGYMDOah8gXlLIbrv9dnfIdLhVpv2y66+/3szue9JJJ8nhpmbf64PhAxiAARiws9oHiJcUshUrV7riRbuQ3v8gz/c6dXRacvLJJxvxcs6550qn1eV7nTB8AAMwAAN2VvsA8ZJCpusanXLKKW7i7pFHHinbSwK+1mlH2U6zGrTWSReR9NtHGD6AARiAATvrfYB4STEIdNVmTdh1cl9OO+00s3qzX/XZWFBoEnU18rJw4SLf/YPhAxiAARiws94HiJcUhGD6jBnuqCP9/dvf/c7XriwVUVoX5njxnw0MH8AADFj4APGSqhDoGkdO95Gf+S/OSCONvixdtsx3v2D4AAZgAAbsrPcBkZcUnvdF1zlyBMx3vvOdIV/zqKW1TX7+85+bLqOcnBypb2j03S8YPoABGIABO+t9gHhJYQjeWrhIvve977kjkM466yxpam4ZsvPvLN/lCqhf/frXvvsDwwcwAAMwAAPKAOIlxUF48smnXPGieScPPPDgkJ37k08/dddbeuSRR333BYYPYAAGYAAGEC9pAEFrW2NOa0gAACAASURBVLuMGTPGFTDahbP47XeG5Nw333yzu6bRqtWrffcFhg9gAAZgAAYQL2kCgc714iwdoKZ/F2/bPqjnrK6plREjjjPiZdy4cSb/xW8/YPgABmAABmAA8ZJGELz9zrtu8q7a6NGj5dDhpkE7X6B0h9tlRL6L//cfwwcwAAMwYLs+IOcljR6Ihx9+xJ1zRX//5u67B+1cb7210BVLqbRIJIYPYAAGYMDOeh8gXtIIguaWVjl//Hh39t3jjjtu0BZKfHryZDdJ+MWXXvL92jF8AAMwAAMwYPX4APGSZjBs2FjgTtc/YsQIsx7SYJznmdxcV7zMmTPX9+vG8AEMwAAMwICFeElPCIq2Fst//ud/uuJlsM4zbfp0V7wsWPCW79eN4QMYgAEYgAEL8ZKeELzz7nsm8qLdRkcddZTMn/+m2aaWt+RDee/9D2TR4rfNcGr97fytywu8+977snDRYvO/87lu+yBvifntPU6HSTvi5YknnjRdVn5fO4YPYAAGYAAGlAG6jdIEhD1798kNN9xgIi4qKJxFG52/vabzsnitP5+FlnnGGWcM+vBsDB/AAAzAAAxYcfgA8ZImoNx2223u6B9nCPNQmoqmn/70p1Kxf7/vvsDwAQzAAAzYWe0DxEsaWG1dvVkYUUXE0cOHy9mjR8vYcePknHPPNTbunHPM//HY6DFjwtqYsWP7mG7X9ZSOOeZYd6bdTz/7zHd/YPgABmAABuys9gHiJQ2sbGe5iXyoadfRUJ//D3/4oyteVqxc6bs/MHwAAzAAA3ZW+wDxkgbmrO6s4uX6668f8vPrYpDO5HirVrHGkd88YPgABmDAynIfIF7STLxce+21Q37+3//+D27kZfXqL3z3B4YPYAAGYMDOah8gXtLAUkW8aOQF8eI/Dxg+gAEYsLLcB4iXNMl5+Y//+A8jXi644MIhP/99993vipely5b57g8MH8AADMCAndU+QLykge2rqJBzzz1XRo0aJX/60wNDfv7ZL75oVrEeN26cbNq8xXd/YPgABmAABuys9gHiJQ2s0+qSjk5L2to7fKuDnt9vP2D4AAZgAAZgAPECBDQEMAADMAADMCDp5gMiLylwEzB8AAMwAAMwAAM24gUIaAhgAAZgAAZgwM5IHxB5SYGbgOEDGIABGIABGLARL0BAQwADMAADMAADdkb6gMhLCtwEDB/AAAzAAAzAgI14AQIaAhiAARiAARiwM9IHRF5S4CZg+AAGYAAGYAAGbMQLENAQwAAMwAAMwICdkT4g8pLm9qfZ7/teBwwfwAAMwAAMWIgXIIhbfeZMpNGAFxiAARiAAckmHxB5SfcbiHjx/R5g+AAGYAAGbMQLECBeYICXAQzAAAzAgEXkJTMhIPLi/z3A8AEMwAAM2ERegADxAgO8DGAABmAABiwiL5kJAZEX/+8Bhg9gAAZgwCbyAgSIFxjgZQADMAADMGAReclMCIi8+H8PMHwAAzAAAzaRFyBAvMAALwMYgAEYgAGLyEtmQkDkxf97gOEDGIABGLCJvAAB4gUGeBnAAAzAAAxYRF4yEwIiL/7fAwwfwAAMwIBN5AUIEC8wwMsABmAABmDAIvKSmRAQefH/HmD4AAZgAAZsIi9AgHiBAV4GMAADMAADFpGXzISAyIv/9wDDBzAAAzBgE3kBAsQLDPAygAEYgAEYsIi8ZCYERF78vwcYPoABGIABm8gLECBeYICXAQzAAAzAgEXkJTMhIPLi/z3A8AEMwAAM2ERegADxAgO8DGAABmAABiwiL5kJAZEX/+8Bhg9gAAZgwCbyAgSIFxjgZQADMAADMGAReclMCIi8+H8PMHwAAzAAAzaRFyBAvMAALwMYgAEYgAGLyEtmQkDkxf97gOEDGIABGLCJvAAB4gUGeBnAAAzAAAxYRF4yEwIiL/7fAwwfwAAMwIBN5AUIEC8wwMsABmAABmDAIvKSmRAQefH/HmD4AAZgAAZsIi9AgHiBAV4GMAADMAADFpGXzISAyIv/9wDDBzAAAzBgE3kBAsQLDPAygAEYgAEYsIi8ZCYERF78vwcYPoABGIABm8gLECBeYICXAQzAAAzAgEXkJTMhIPLi/z3A8AEMwAAM2ERegADxAgO8DGAABmAABiwiL5kJAZEX/+8Bhg9gAAZgwCbyAgSIFxjgZQADMAADMGAReclMCIi8+H8PMHwAAzAAAzaRFyCIDMHqzWXy2Ybtrql48f6v1tTajg9pTGEABmAABiRTfTDM7wpgifng11MWGMESyUZc+xA+hSsYgAEYgAHJZB8gXtLMKqrr5Z9OvyWieFn8eYHvdcTwAQzAAAzAgIV4AYJ4oi9EXeCEFwYMwAAMWFngAyIvGRR9Ieri/73B8AEMwAAM2IgXIIgv+jL6jqn4ikYTBmAABmBAssEHRF4yJPqyoWSP73XC8AEMwAAMwICFeAGCeKIv4++bRoMBKzAAAzAAA5ItPiDykgHRF6Iu/t8LDB/AAAzAgI14AYL4IFjyxRZ8RaMJAzAAAzAg2eQDIi8pcBMwfAADMAADMAADNuIFCGgIYAAGYAAGYMDOSB8QeUmBm4DhAxiAARiAARiwES9AQEMAAzAAAzAAA3ZG+oDISwrcBAwfwAAMwAAMwICNeAECGoJsZSBv0jAZNiy85eRMkty8wADKD0hJ3iRTTl7Cxy6RiU49cgdSBwwfwICV5T4g8pICNwHDB0MlXoYNUDyU5I7sKQPxwnPLcwsDNuIFCGgIYGDoxIvaxDzEC8zR7sCAnZY+IPKSAjcBwweDIl5ypkhJ0GcByZvkRE6GybBJS0KiKpMkJ0jgjJSJboQmILk5YUSQ5xzRjw/tNloied79I3RnxS6zp26TRgbvp+UFwvgnsMTsG1zekhA/YfgABqwU9wHiJQVuAoYPhka8hHzu6frp7Q6K1MUUXbzEPj5YvMQTDYqvzAj16hEmQQImMCVECIUXYRg+gAE75X2AeEmBm4Dhg6EUL1bepJCXe6+o6I1qLJGJOX0jNOFzXuI93iteRspEJ9IS8G53yo2zTI8gcffzluee2yNycqZIniNqPMeTRMxzSFtsp40PEC8pcBMwfOCvePFYICB5uVN6RUKfrqEYCbtRjw8nKgZYJ280JdpIKq/ICcn1ca+J6AttEW2RpIsPEC8pcBMwfOC3eDHDn+PoUokkXuI7PspQ6TDiIt46BeXx9FxXzqQlUhJvl1GfqA+GD2DASnEfZLl4CQ4l0+ed5JfkINvAhu1mriWc8xIUvehJYA2EfzbC+jzu4xMQLwnUKXwibsh5XMGGePGbTwwfWEnwAeIF8TJoL8nBNsRLovclYEbv9IleuC92rwj0CIVYOS9xH59At1ECdepjKnKiCLT+DBHH8AEM2CnlA8QL4gXxku3zvHiiEk4SrXbZuPvGLV5iHR882ihswm4fQRWjzDD7BQ8Jd+rpjdpM8iTsRhFUGD6AAUlVHyBe+oiX4G933VOhe0ZI9IShg/vjPSMnEp6jovtbYW8yYndZEaMKCc9TESlUHyusr/NwjIyaDBlrPhHvtedM8ozwSIaPeupHt1H/xIvmhIRjJFZ+SZ/uF/NZvMcnMlQ63jKjDZUOESRR817oevT7ZYThAwvxEi8E4V7gMRpD0/CPTNIcFfH0xUfILYj2gkmCeIn9cokkXqKVETySZFB8hPVvbaM+4jAQYQRQ94RwfbiL6/gEJ6lLoE5BZZnyIoj6MLkxkYQ1hg9gwE5ZHxB5iSFeeueOCBYOOeG2hwmPR5/3wnuu3lB2UHg8bNg7kXkq+i9eoob1I4iX3hfnyN6XUdjjB+6j3vuBePG7IcHwAQzAgIV4SZHIS1BEIY7t4frM45yjIlR4RBsRktg8Ff0UL3HMw9FXvEQZTZKEeTxi+gjDBzAAAzAg2eADIi8xcl7Cvuzj2B7XHBXxCJJww1kT6j7pb85L7Hk4+oiXaCM6+juPRyI+wvABDMAADEg2+ADxMhjiJd45KhJ5Mfd7nooUFS+D4SMMH8AADMCAZIMPEC+DIV7inaMiSd1G0S1Fu40Gw0cYPoABGIAByQYfIF4GVbzEmveivwm7icxTEe44zTEJM2JkKBN2++Wj4Onso0ecMHwAAzAAA1aG+gDxMig5LwOYN8OJMuTEmIY9ri6jUEERqz6DPVQ6/ErE8fgoer4P4sXvhgTDBzAAAxbiJf0TduOfo0KjCJ59e+a7iH+SunjmqfDOONqdY5KbtyRmzkvQBHJar5BzJDpJXd85N+L3Uei+ziR6iBcaTF6aMAADdtb5IMsjL6lr/iSjRslZwfABDMAADMBAV2r4APHi6w3wdp2E5LHEswAd4sX3BwjDBzAAAzBgI16yDYJY+ShDuwIukRe/ecDwAQzAAAzYMX1A5MX3B6VnXZacONegQbzwYPvOLIYPYAAGbF99gHjhIeQhhAEYgAEYgAFJJx8gXlLgJmD4AAZgAAZgAAZsxAsQ0BDAAAzAAAzAgJ2RPiDykgI3AcMHMAADMAADMGAjXoCAhgAGYAAGYAAG7Iz0AZGXFLgJGD6AARiAARiAARvxAgQ0BDAAAzAAAzBgZ6QPiLykwE3A8AEMwAAMwAAM2IgXIKAhgAEYgAEYgAE7I31A5CVD7M03F8g555wrPz/jDHnwwYekoaHR9zph+AAGYAAGYMBCvABBOAh+//s/yDe+8Q13aYH/9//+n5xyyilSXVNDwwEzMAADMAADkmk+IPKS5nb33ffIN7/5TVe4/N3f/Z0RL/r3ySefLLV1db7XEcMHMAADMAADFuIFCBSCe++9L+qK1CpkTj31VAQMvPDigAEYgAHJJB8QeUlTu+/+++Xv//7vY4oXNe1CIgLj/z3D8AEMwAAMIF6yFoJf33GH6RpSYRJNvHgNAeP/fcPwAQzAAAzYSfEBkZc0e5juuffeoByXeE2FjubAkMTr/z3E8AEMwAAM2IiXbIHgV7/+tREuiURcQk0FTE1tre/XguEDGIABGIABq58+IPKSJvD89re/G5Bo8Zom8RKB8f+epqMdbrOk6lCHBKqaZW15vSwtqZP3N1XL+4UH5OWV+2Tm8m57edU+s00/033WljdI4ECzOVbL8Ps6MHwAA3Za+wDxkgZ2zz33xkzOTaT7yInAIGD8v7epbNWHO2RNeaPMza+Uh/J2yo1zt8kFMwrlzNz1cvbzRTJmZomMmRWQsS/skDGzSs3fwVba81nA7KvH6LFahpalZWrZeg49l9/Xi+EDGLDTxgeIlzQfDj0Q0yReupD8v8epZMWVzfLamiq5a1GpnD99k4yevq1bgKj4mFYkZ00tlFFTNhgRcuYz6xKz3PXmWC1DyzLi54Ud5hx6Lj2nnlvr4LcfMHwAA3ZK+wDxksL2u9/9vl/JufFGYNxh1LVMZJfNdvBQhywsqJab55fIWc9tNmJFBcWoqQWJC5R+mp7LEUpaB62L1knr5rd/MHwAA3bK+QDxkqJ25513RR0Ordv/+Z//WS699LKI+/z4xz+W4447rk+XUbgcGNZCyj6rbGyXmSv2y4WzioxoOHva1v5FVJJt2i01baupk9ZN61jZ2Oa7vzB8AAN2yvgA8ZKC9oc//DForaJw9k//9E+St+RDWf3FF2bfcMLk8ssvl/2VVfKjH/3IjbREEkI/+/nPpa6u3vdrx4bGB/PXVclFL2yVsbPLTDfOmc/k+y9a+li+qZvWUeuqdYYPnhEYgAHES4om52pXkbM+UTjTz19/fY7Z/+133o0oXkaPHmP22Vm+ywiYWEm8KmDqWY06o62yoU3uXLRDxs7eKWc9u0nOnJyKoiXEJuebumqdte4V9a2++xHDBzBg++oDIi8p9BA+9tjjUYdD62cacXl9TrdwUVv89jsRjzn77NHufuW7dssRRxwRtftIt585ahQCJkOt7GCzXP7yNjMKyHdB0k8b80KpTHhpm7kWv/2J4QMYsH3zAeIlRR7A5StWyD/+4z9GFS86XHruvHlBx0UTL2eddXbwy2tnedQIjJNjc/uvfuW7P7Dk+qC2qV2ufHmrGeGTFtGWKFEYvQa9Fr0mOOFZgQE7K32AeEmh9YqiRURU2Lz8yit9josmXkaNOqvP/jvKdroCJlIezLe//W1pa2eURybZwx+UyrgXy9NbuHgEjF6LXpPffsXwAQzYvvgA8ZIiD99tt98eMSKiwsXbVeS1eLuNQiMwP/jBDyKe77vf/a60d3T67hMsOT4or2mRUc78LH4LjySZXote087qFjjhWYGBruzzAeIlRezz5cvdWXRVjDhdOJqM+9LLL0c8btHityMm94Z2G3mtdEeZ/PCHP+wz74v+ffMtt/juDyx5PninoErGzNqRoiOK+mv5ZoK7xQWMQOJZob2wstAHiJcUsqeeetok5KoYUfu3f/s3WbDgrajHLFq0uF/ixREwJ5xwgrvYo/4+6+yz5WB1te++wJLngzlrKnrEy7qMMk08nrO2AlZ4XmCgK/t8gHhJMVu3br08/sQTMvmZZyRQuiPm/gMRL2qHDjfJnDlz5ZFHHpX589+kuyhjIy+lGRl5WbSRyIvffGH4wPLBB4iXNAevv91GmWCLPy+QZ9782Pd6pLrtrm2RUVM2GvNfdCTHnOvZVUPOi998YfjA8sEHiJc0By8bxYuKlhHXPiTDcibKtQ/3HYGF9fXBo0t0YroMG22Ux2gjWOd5t7LUB4iXNLdsEi9e0eIY4iW233Rxw/rmDrnipS0ZM8/LFS8VSW1Thxw8xFwvfj+XGD6wfPAB4iXNwcsG8RJOtCBe4vffspJaaevsMrPS6uy0aT3D7qzeGXZbO7rMtfnNJ4YPYMAech8gXtL8wUt0krp0srKK6oiiJRXt5Q9W+e6zcDZ7xV6Zt2av+Xt/favctXiHjH1R1zYqTKO1jQpNnbXueg16LXpNem1++xfDBzBgD7kPEC9p/uDpwozxLg+QrgJGu4YiCQa6jWL78LUv9sn42SVSfbjN/N9pdcm8/Eq5YFb6rCqtddU6a931GvRa9Jr02vxmFMMHMGAPuQ8QL2n+4GVy5CUeEYN4ie27N9ftl/PmHJBb3wxIY0vvsg/7G9pk+vIKGT9zi4x9YYecPW2rnJm73n/Rkrve1EXrpHXTOmpdnXrrNei16DXptfnNJoYPYMAech8gXjJYvJx55ijf6zfYIgbxEttn89ftlzEzAyZf5Ob5gT4rMlc1tsuCjQflxnnb5aznuoXM6OnFMmpqwZAJFj2XnlPPrXXQumidtG5B9/9gs7kGvRa9Jr02v5nE8AEM2EPuA8RLmj942SZeQkUM4iVO8aJJupPzZfSM7TJ+ZpG8XXgw7L7F+5vlldWVcsfCUjl3WqErKHSEz9nPF5lunO41kvoToVlvjtUytCwt0xFKei49p55b6xCublpnrbtegxl1NKsU8ZICzyKGDywffIB4SXPwslW8ONbUylDZuMWLm/y6yfx/+4JSWRZoiHjcgUMdsra8UV5fUykPfFAmE+cUywUzCnu6dbrFh4mAqLh5odSNhjhRHrNNPzPbS8wxeqyWoWVpmVq2nkPPFakeWketq5ajdXeSjBEv/j9/GD6wfPIB4iWDxUsmJOxiSRYvHtOIh4qKW94MyLuF1VLXFFlAOKbzxehKzht2N8hft9bIu4UH5bUv9surqytk+tLd8sRfdxnTv3Wbfqb76L4bdjeaY7WMWOfRumik5RbtIppZYuoaWn/EC88H7YOdtT5AvGTAPC+IF//vQyrbvPzoCzNqcqwKgQtnbpaHP9wln2yrk8qQXJOhMD2nnlvrcNHMzaZOJok4Qr31mvTa/PYvhg9gwB5yHyBe0vzBG+jCjFjm+2B5oM505cTKSdFcFNMVNLNExj1XILfN3y7Tl+2Tj4vrpPRAizS0dCatTlqWlqll6zn0XHpO5/zdw7ej11evSa/Nb/9i+AAG7CH3AeJliBxdsb9SSgKlaS9edu/ZOyjXgQ2eD1raLblidqGcPa047vlcdNFDJyKjImHUlAK5cEah3Dh3q/zh3VKZ+tluM+/KuwUH5POSOvm8tEHWljfI1orDxvRv3aaf6T66rx6jx2oZWpaW6eTH6LniXzgy31yLXpNeG+zw/MCAnXU+QLwMsoMPNzXLbbffLv/2b/8m3/zmN+XUU0+VVatXp514qamtlRtuuEH++Z//2VzHaaefLuvXb/AdYCy2D1o7LFlaUmdG9vR3ZelRuRvMLLcqMnS0jxE1xgLd/5uE3K0moVbNCB/NVTH79iTwzio1/3fvV2jK7Fddpmw016LXpNcGAzwHMGBnnQ8QL4Ps4CuvvNKIC8c0P+Vf//VfpXjb9rQRL61t7XLmqFHyjW98w9TfybH51re+JeW7dvsOMRbdBxoJ0d8vr9wrY2fv7BEwgzGj7vruSe7MRHeDMdldfrdwmb3TXIv32jB8AAN2VvkA8TKIzt1YUGiiFOGEhUZjknGOhQsXuaIi9Bw///kZSTnHZ0uXhhVIuu3BBx/yHWIsug90Ftri/U3m71dWV/QOW06HdY0cm5zvDs/Wa9Br0Wtihl345/m3s9IHiJdBdO7CRYvDChe1s88enZRzvPXWwoijjcaMGZuUc8yZMzfiOa666irfIcai++CF5XvlrrdK3P+Xl9bLVa9uN2sGdc+im8oiJt/UUeuqdda6O9eh16TXxv3nGYABO+t8gHgZROe+tXBRRPGSLGGh0Z1/+Id/CCrbERrJiorMm/dGxK6pK664wneIseg+eCO/e22jtzdWudvqmtpl5vIKOW9GkYx9oUzOem5zCgiVYNM6ad20jlpXrbNT/8Ubq8w16bVx/3kGYMDOOh8gXgZZvESKWCQr8qJ2x513BnVPqdD40Y9+JPsqktOwv/HG/IjXMWHCBN8hxqL74M31lTL2xXIz0dsij4BRq6hvk1kr9ssVL2mCbSDuYcqDJljc4doBUyetm9bRW+eFG6tM4q9ek14b959nAAbsrPMB4sUn8ZLsYcxPPf20HHXUUfKtb/2XGRWkQ5qTVXa0yAviJX0WZtTulzEztsuzy/bJodbgOVsOt1ny6fZ6eSiv3ExWN3rGtu7RQdOLzcigQVltOne9KdvM9GtGIm0z59Y6aF20Tt46ap217ipczLWwMKPvbGH4wPLJB4iXQXTugrcWRuw2Gow5WDo6LTl0uDsxM5k2d+68iOLlsssuowFLm+UB8o1g0GHG172+XT7dHn6Ct/rmTlm7q1Gmf75P7lyoM+92D3921zKaGZDR07d1L9T43GbzmY4CCmdm6PRzm82+eoy77pFGeJ7dZMrWc+i59Jx67nB10rpqnbXu3UKKhRn95grDB5aPPkC8ZJB4GSyLJl6IvKTh2kY6cqdnVefbFwRkaaBB2jq6os6Gu62q2URDXluzXx77qFzuXhSQSXOK5bJZhXLRjEIZM3WDjJ66Psh0m36m++i+eoweq2VoWVpmtFl7tU5LnUUZe1a19o6QYm0j/9nC8IHlkw8QLz51G40adVbaPPjRIy/kvKTH2kZ9F2ZU0y4b7Ya57rVieWmVDqluTqjslo4uOdxqmXWJKhvagq2x3Xym+yRSZnFls7y0qtLUSesWblFGR7ywtpH/fGH4wPLBB4iXQXRupoiXaDkviJfUt3cKqnoWZow8JPrs57eYLhntypk4d5tMW7ZPVpU1SlVj7BWgB2p6jpU7GuW5pXvNuc96bpOpi9Yp2hBqvSa9Nr/9i+EDGLCH3AeIl0HuNsoE8TJn7lzESxrbrpoWk+Aa19IAueu7u5R6EmjHPrdRbnhtqzz6YbnMWVspywL1srWiSfbVt0tDS/zCRvfVY/RYLUPL0jK1bD2HkyBsuobiSA42OTVTC8y1+e1fDB/AgD3kPkC8+CRe0innJZp4mTDhct/rh8X2wcN5pTLuxfKEZ9U1CzT25Mc4axOZBNwpG8ziite9WiS/fK1I7lqwPazpZ7qP7qvH6LHu2kg9eSwJr7c0Od9ci14T9x7+YSA7GUC8+Jiwq6ODvNZpdbnmLce7XS30uHDHx7N/tGO89trrryNe0tgOHmqXuqYOuerlbhEy4GUBctf3jCQqNF07zkiicKaf6T5mIUYVKQMdcj0531yDXotek16b3/7F8AEM2EPuA8SLDzPsajTmX/7lX2TEiBEyfPhwOeaYY1w79thjzfZQ0+1quo8eE2reMsKZs9/RRx/tmvc4p/xQO+644+R///fbEUUYkZfUb7g/N6svd8nO6ma5/OXu7pmkz9kyRKZ112vQa9Fr0mvz278YPoABG/GSLcsDZIohXlLfZi/fK/PX7jN/729olTsX7zArM5vJ59JhccbJ+aauWmetu16DXotek16b3/7F8AEM2IiXTIIgE8RLpJwd5zPES+rba1/skwteLJGDh7qn2deuwHn5lXLBrK3d6xr5uBxALNO6aR21rlpnp0tVr0WvSa/Nb/9i+AAGbMRLJkEw/80FvouPwRY2DJVOfXtznS7MeFBunV8iDc29OSL76ltl2ucVMn5m9zDps6dtlVG5G3wXLFoHrYvWSeumddS6OvXWa9Br0WvSa/Pbvxg+gAF7yH1AzssgOvfz5cvlG9/4RsYKF7V777uPBzdN1jZSu3Hedik7GDwR3YFD7TJ/wwG56Y3uRRlVNOjEcDoUecgEy9QCc04z18zUQlMXrZPWzVtXrfuN87oXbmRtI//ZwvCB5ZMPEC+D6Nz2jk4588wz3Rd9pokXTTrevKWIBixdlgeYnG+GKZ83Y4ssLjjYZ1SbWsmBFjN9/x0LS+X86Zvc+VfMsOZpRUZYmOhMf0YN6Sil3A2mDC2rd/j1NnMuPaeeW+sQWi+tq9ZZ667XYEYdzSo11+a3fzF8AAP2kPsA8TLIDq7YXykXXXSx/MM//IP8/d//fUT75je/mVIWra5qOlLp408+5aFNt7WNnOTXF3bIbQtK5fPShojH1TR1yBc7G+T1tZXy4Ac75ca52+SCGSpe1geJD2Mv9Pye8PVsaQAAIABJREFUpQsvBkK29YofPVbL0LK0TC1bz6HnilQPraPWtXsG4N4kY8SL/2xh+MDyyQeIlyFydEmgVDZuLDBWUFAohYWbXNu0abP72/nb+7/3882btxjzfuZ8ruV6zVuO9xinDGebs6/+9tbRu90x/axoa7E0NTOzadouzNhj2k0zZkaJ3PZmQN7ZVC01TbHnTKlv7pCd1S2yYXejfFxcK+8VHpRXVlUYe3nlPnniLzuN6d/O9vc2HTT76jF6rJYR6zxaF62T1k2FT7j1jRAv/rOF4QPLJx8gXoCPBigrFmbcEbE7R5NjVQhcOHOzPPLhLvl0e53sbxj6yd/0nHpurYPWxSwXMG1rxHrrNbEwo/98YfjA8sEHiBfAo/HJcAaWB+pMcms8w5K7E2FLZNxzBXLb/O3y/NK98sm2OimrbpWGls6k1UnL0jK1bD2HnkvPabqiZgbiGr6t++m1+e1fDB/AgD3kPkC88ODx4GU4A03tllw+u7AnihHfpHQ6lf/oacVuvor+f+HMQrlxTpH84d1SmfLpbnljXaUs3lgly0pq5fNAnRESW/cfNqZ/6zb9TPfRffUYPVbL0LK0TDdpd1pxAmsc5Ztr0WvSa/Pbvxg+gAEb8QIENAQwkHwGlm6vNQmvo6b0bx4XM0pI1zKatrV3YcUe0/8dO+vZTca820L31TLMWkf9nFNGr0GvRa8JVmgvYMDOSh8QeUmBm4Dhg6FgQKfS1yn2uyMcg7QsgA6hHujii1EiLlp3vQaWBeCZod20s9oHiJcUuAkYPhgqBl5aua972PLzRemxrpFjk/NNnbXueg08MzwzMGBntQ8QLylwEzB8MJQMrCitlyte2SZjZ5f1zKKbyiIm39RR66p11rrzvPC8wICd9T5AvABB1j8E2chAfVO7zFheIefNKOpenPG5zSkgVIJN66R10zpqXbXOfvsNwwcwYKeEDxAvKXATMHzgFwN769pk5vIKmfBikTtM2s9VpruHa3cPl9Y6ad20jjwjPCMwAAMW4gUIaAhgwMvAodZO+WR7vTzwwU4zQdzo6d1rGunMtmZK/sFIws1db8o2M/2ac20z59Y6aF20TnAKpzAAAxaRFyCgIYCBWAzU9axppFGPOxfqzLvdw5/dtYxmBozQMEOen9tsPtNRQOHMDJ1+bnP3EGsVRBrd6Zk7Rj/TsvUcei49p54bRmEUBmDAotsICGgIYGAgDNS3dMr2qhb5ZFutvPJFpTz+l11y7+JSuXneNpnwQqFcPHOTjJm6QUZPWR9kuk0/0310Xz1Gj9UytCwtU8uGT/iEARiwyHkBAhoCGBgqBlo6uuRwmyX7G9rM2kTdv3v/1s90H5iESRiAASuJPiBhF6BoVGAABmAABmBA0skHiJcUuAkYPoABGIABGIABG/ECBDQEMAADMAADMGBnpA+IvKTATcDwAQzAAAzAAAzYiBcgoCGAARiAARiAATsjfUDkJQVuAoYPYAAGYAAGYMBGvAABDQEMwAAMwAAM2BnpAyIvKXATMHwAAzAAAzAAAzbiBQhoCGAABmAABmDAzkgfEHlJgZuA4QMYgAEYgAEYsBEvQEBDAAMwAAMwAAN2RvqAyEsK3AQMH8AADMAADMCAjXgBAhoCGIABGIABGLAz0gdEXjLE/jT7fd/rgOEDGIABGIABC/ECBHGr0JyJNBrwAgMwAAMwINngAyIvmXIjES++3wMMH8AADMCAjXgBAsQLDPAygAEYgAEYsIi8ZCYERF78vwcYPoABGIABm8gLECBeYICXAQzAAAzAgEXkJTMhIPLi/z3A8AEMwAAM2ERegADxAgO8DGAABmAABiwiL5kJAZEX/+8Bhg9gAAZgwCbyAgSIFxjgZQADMAADMGAReclMCIi8+H8PMHwAAzAAAzaRFyBAvMAALwMYgAEYgAGLyEtmQkDkxf97gOEDGIABGLCJvAAB4gUGeBnAAAzAAAxYRF4yEwIiL/7fAwwfwAAMwIBN5AUIEC8wwMsABmAABmDAIvKSmRAQefH/HmD4AAZgAAZsIi9AgHiBAV4GMAADMAADFpGXzISAyIv/9wDDBzAAAzBgE3kBAsQLDPAygAEYgAEYsIi8ZCYERF78vwcYPoABGIABm8gLECBeYICXAQzAAAzAgEXkJTMhIPLi/z3A8AEMwAAM2ERegADxAgO8DGAABmAABiwiL5kJAZEX/+8Bhg9gAAZgwCbyAgSIFxjgZQADMAADMGAReclMCIi8+H8PMHwAAzAAAzaRFyBAvMAALwMYgAEYgAGLyEtmQkDkxf97gOEDGIABGLCJvAAB4gUGeBnAAAzAAAxYRF4yEwIiL/7fAwwfwAAMwIBN5AUIEC8wwMsABmAABmDAIvKSmRAQefH/HmD4AAZgAAZsIi9AgHiBAV4GMAADMAADFpGXzISAyIv/9wDDBzAAAzBgE3kBAsQLDPAygAEYgAEYsIi8ZCYERF78vwcYPoABGIABm8gLECBeYICXAQzAAAzAgEXkJTMhIPLi/z3A8AEMwAAM2ERegADxAgO8DGAABmAABiwiL5kJAZEX/+8Bhg9gAAZgwCbyAgSIFxjgZQADMAADMGAReclMCIi8+H8PMHwAAzAAAzaRFyBAvMAALwMYgAEYgAGLyEtmQkDkxf97gOEDGIABGLCJvAAB4gUGeBnAAAzAAAxYRF4yEwIiL/7fAwwfwAAMwIBN5AUIEC8wwMsABmAABmDAIvKSmRAQefH/HmD4AAZgAAZsIi9AgHiBAV4GMAADMAADFpGXzISAyIv/9wDDBzAAAzBgE3kBAsQLDPAygAEYgAEYsIi8ZCYERF78vwcYPoABGIABm8gLECBeUp6BwBLJnTRScoYNk2GO5YyUiblLpCRk37xJzudT+nw2EAtX7mCdK5WtJHdkzz2YJHmDeq6AlORNkpycwT5PdpnLbAQz/g74X89st5JBeM76U+Ywvx2BJccHRF58YCkwJVi0hNqkJUH7I17Sr1H18zzZZrHES7eNlFwEjPh5nxAvKfCwZJIhXlKzsZ2Y5w8PRF4Gz7eIF/+ep3BfCjB7SH2AeAG6pAKFeBnqRiwguTnhu2ZK8jwRGU9D21dQeMqYtKSnK6L3G+bE3EBPeZM8EZ6RMjGve3vkciOLl5Jcb1nB5+m2JTLRCdPnLumtn0YZ+nzjDd43L9fTfZYzSXLzEi03IHkhXXA5k6aE7yoITJGJQb7qPn9wRMR7zkBc9067ASfmjIzgH89xQd2EnvvZpwtxEpGCRMVLuK5O7Z6Ncs/U78H3rG+3bez7G/x8x2YxGc9vctoAK04/BPk46BnS6wvjs7ieswTvQyJlRnvnISIywxAvQ+1z74usuzGJlVsSVbxE6ucPagzCR3TiFS+935jCnMdtwHtf+OFf0F6LsG/YesYqN1pZIV0FeZNifDvvp3iJ1g1oRGg08RLtXtLVkQzxMjHRe9ZH5MS6v/Fw7b2XyXh+k9MGWHH6IWZ0y+uHuJ+zBO5DImXGeuf5/dLFkuMDxIsPLIV9EPWbRPhoQSzx4n4DDGkIcsJtjxrRCbett0Hu/abpeSG45Xkb7t6GuiQQ7ttpcCPvfhvUF01UcdK33N5GdWRvxCZsOYGwUZvgb6b9ES/B27rLDRaobp3DfUv03Jve++ipP10dSes26r2X4e5Z8L2Ivm/4+9s/Fvv7/Ca5jJzofvD6WCOgJaHX5jKdyHMW7/kTKTOOdx7iITMEFOLFH7/37YaJ8I0jlngJ2jeO7QmLF48FApKXGxwyDisyYr5wo+zrCjvnpRCt3EgiI0w5YV9MoS+dfogXr/jwfqPVLkAzyqX3+FjipW+XGZY08RIh6hKaW+beo4TvbwIsJuX5TUIZgfj90PcZicB0Is9ZvOdP6NmN453Hg5UZDQvixU//hxEDcUVIwouRRLfH3W0U9A0n0kshSuPdx6Ls26dBS2TfKJ/F01AmU7wkkLCoORLBfh3ZnUfA6JiBi5cQARnKRmSL/YLtN4tJeX6TUEYgfj9EzoWLLF5iPmfxnj+hZzeOd55/DT6WTB8gXlKHp5K8kITUVBAvQZGBnkS6QLhvd4iX/oqX8EmL8QpBLNzzESQIQxNKY+ZPZIl4yYvfD4MiXuI9P+KFhxzxkgIMeB7Yvln62uhG6Uv3Q7y49fW+cMOV1z/xkki3Ud9yU6vbKGhfMzIiuBso7m+JKg77EQ7PVov0Yg3O0wi+N/FGy+K/v/3sNkqRyMvEGH7oj3gZSLdRXPeAbqPsNiIvQ+3z2CNtYgoKX8RLb2KtdiN5v9UOSLwkkLAbrtz+JUl6kmiDvv2FSyR0EgS1i8/zbT5qInDwN3+nYQ4rXsL4N/h4xEusZypynlb4ex7+/kZKlI7//vaLRT/FS1f8fohbvAz4OQt3/kTKjOOd5/dLF0uODxAvPrAULYek5wGNPqR5KHNeYoitAXYbJTJUOny50coKadBi+j1MV10c4rLfwz1jDpVmtFE8z1P0JHNvt2ec96zPPCTxDquOl8VUES923H6IX7wk9pzFfR8SKTPWOw/xkBkCCvGSQmsbmUTNvsOl/U7Y7Ts5VCDB7p1QC943aORVn8nZ4ik3/MRg4ScbC74WZ5K8cC+YoLyJHP02HX3Cs9BJzMJ1CwbltXhzNEJHn0VY5wpLfFZo7zxFwV0/ffOMIk9uGM/9jZfFFBIvXfH5ISHxktBzlsB9SKTMaO88HqLMaEgQL/7fg+yzRIQOhg9gAAbs5L3zcGZmPFCIF//vQfYZ4sX/e4DhAzsrfYB4yZQbmTPR9zpg2eYDxIv/9wDDB3ZW+gDxkik3EvHi+z3IPkO8+H8PMHxgZ6UPEC9paiOufcgIlkj2H+fcLU2t7b7XE8MHMAADMAADFuIFCBSCxZ8XRBUvz7z5MQ0GrMAADMAADEgm+oDISwZGX4i6+H9vMHwAAzAAAzbiBQjij74QdaHR5HmBARiAASuDfUDkJcOiL0Rd/L8nGD6AARiAARvxAgTxR1+IutBo8rzAAAzAgJXhPiDykkHRF6Iu/t8LDB/AAAzAgI14AYL4oy9EXWg0eV5gAAZgwMoCHxB5yRAbfcdU5nVJgfuA4QMYgAEYsBEvQEBDkG2r51rxrPY6KBaQEl2yPif4XJHqqyvBelfd1VWqE7m2oaonlnk+cO91ONOVvPOGdqHQoXtOw7NvJcOXsVal97GO4YzIyxA/dBg+SFXxEulcYeubN6nPS2Ni3tAIiITqiWWfePFhpfOhek4H4zx5SRYvQ+ULxIuPDyCGD1KlIUj4XK54GSm5gaG9j0MbjcLSVbwMJR+ZJl6sFKtjOEO8DOEDh+GDqI1FYIpMzHEa3pEyMXeJ6ZoJ2xAElkjuJOez3v1Lop0rqPxhkjPJ2T8guTnhwu/d9Qutb/gXR3f9Il/bEpmYE1rfvt+MS3InBXVFBe+XWD17y9XurOAurpxJUyQv0B9fYangg6j32n1mHGHtXUB0iYehSR4G4mMk/uc00qKlHoYTekais2/p5yH1H5YzKa4vFvFHXmKdI1Ydk2uIlxR4ELHs8kG83TARv0UGpoS84CM3FDG/oU5aMvjiJVp9zflDv7FF6gLoj3jpfYn0teCoUXy+8p8frP/iJfyzEj8j8T+nCYqXmM9INPYD4T8LV/8426O+2+I5B+KFh5MGKqMZiN4w9H4bNElvfRrF4MbP/Wboafy8jaX3hazfOkucb3hhRFH/cl4iCIBw1+bW13u9fV8wvd829ZtoNJETu5691z9Scp0kTu/1h903tq+wFHmGEhQSXl5LAoEEGUnkOU1EvMT7jERgP9D77LvPjrf+MUR3XOIlgXPQbUQDQQOZoQxEaxhCkwx7G9aexsrbiOQFl+s2GmFfyMEv3nANzKCIl0j1zZvSPRqh5wUSZAH99hzcbeM9d/z1jPQCCV//RHyFpcgzFMV6eYv2Ik+AkUSe00TESwLPSCzxMky7cRIcaZWoeIl1DsQLDQQNZIYyEPcLPlxDEC28HCZCECm87rt4CdfoBX2DDbH+iJdo5w7zWSK+wlLkGQpjOX1erlEESiKMJPKcJkO8hHtGIrI/MsQPI7vztJKY8xLvORAvNBA0kBnKwIDES8w+9zQVL0Hf7HqSjwPh8wMQL/4z7LclNkIm88WLFTaJP8I1x+HLaIn3sc6BeEmBBwTDB+nUbZRII++HeAm6NjNiw/MN2S3Pe25PQ9+vnJd+dhsRecke8ZJi3UZRn5FEhEFARwb1/TITry/j8m+EcyBeUuABwfDB0DS8EZLzgqIs4RJ2PUM9IyTP+S5ewiY5dg9LHeYVYZ5rdWZHDbr+oUzYRbxkkXjpb8Juf55T70iofjwjkdjP6/vsBB+fBPGSwDkQLynwgGD4YMga3mj5HqENUNS8l/hmnY3VCHqPGZh4iXdod7ThqjGGlfd7qPQAfIVljHhJhJFEntOYScUJPyOR2A9EGcacpNFGiZwjwvOZbAaY54VGiIY4VRrekMmvchKapC6OiddivpC7J6FKuniJMAFXn4nf+kz+FYhwngTqGWUCsqgT+sX0FZY54iV+RhJ7ToOjJ5rLlZvnmSSvP89IBPYtE9UJEVZO7lgSJ6mL7xyR6phcQ7zQCNEQwwAMwAAMwICkkw8QLylwEzB8AAMwAAMwAAM24gUIaAhgAAZgAAZgwM5IHxB5SYGbgOEDGIABGIABGLARL0BAQwADMAADMAADdkb6gMhLCtwEDB/AAAzAAAzAgI14AQIaAhiAARiAARiwM9IHRF5S4CZg+AAGYAAGYAAGbMQLENAQwAAMwAAMwICdkT4g8pICNwHDBzAAAzAAAzBgI16AgIYABmAABmAABuyM9AGRlxS4CRg+gAEYgAEYgAEb8QIENAQwAAMwAAMwYGekD4i8pMBNwPABDMAADMAADNiIl3SDwP7yS/nqq6/l67/9Tf72N3F/9G/dpp/pPvGU8+VXX5n947Uvv/xKbDt22Rg+gAEYgAEYsFLAB0RefHR+l90tWDxaJeaP7qvH6LHeslSwJFJOpJ+vv/4aIZMCDyaGD2AABmDARrykGgQa7Rjoj5ahZX319deS7B8t028fYfgABmAgkxhoa2+X/ZVVsrN8l5Tv2m1+79q9x1jZznL3b/0s2bazfJfU1TdIl+2/H5JhRF58cHoksbGnoUPyiuvk+ZUV8ujHu409v6LCbNPPwv38zdvH5IqaL8WyrLisq6tLvvrqq4hlh0Z4MHwAAzAAA4kzsLW4WB577DG5+uqr5bLLLpMJEybI5ZdfLpdeeqlr+r9uv+KKK8zfybIJEyaY8m+88UaZPn261NTWpv09RLykgHBZsfOQ3PRWieTkrpfhj6+Vox9fK8c80W36t27Tz3Qf3Tdal09jY6McPHAgIauprpaG+nppb2tDwKTAQ4nhAxjILAYq9u+Xm2++WX70ox/J0UcfLcccc4yMGDFChg8fLscee6z5W3/r/8cdd5z5rab76XbH9P/+2LE9ZR911FHm/E899ZQ0t7T47peBGOJlCJ2teSnen1brK/lt3k4Z/sRaGfFkvpw8ZYOc+uzGsKaf6T66728/2GmODf051NgoB6qqpPrgwYRNRYweW19XJ7Zt94nA+A0qhg9gAAbSlYFXX3tNTjnlFCNS1H784x8bEaFC5cQTTzTi4oQTTpDjjz/e/NZt+jvUdHt/7Pjjj5ef/OQn5reKmZycHPniizW++2UghngZIkdr94v3p6XzK7lmbrEc8dgaOWVqZNESarqvHqPHNnd+FdRVpAJEhYhGUvprThnapeT90SRhv2HF8AEMwEC6MaAjQKdMmSJHHnmkEQ8qXFRAaFfOfffdZ+zCCy80YkYFykknnWQEh/7W/52ojBOticeO9URrHNOyVCzp+XWfhQsX+u6bgRjixafuonvfLzMi5LQ4RYvX9Bg99p73ytzyVGw4XUD9ibw45hUwKoi8P+S/+P/AYvgABtKLAZ2GYsqUqUZ8aPRDu24076UkEDCfd1pdUr5rl9x///1yxBFHuKLFicqcffbZctZZZ8kZZ5xh7Mwzz0zYtIyRI0ca8aTlq4CZO3euObff/umvIV6GyNHetNrV5YdMLksiEZdwERgtY1X5oSDxMhDhEiRgqqqksaEhOPrCCCTfH1gMH8BA+jHw+ONPGOGiEQ8VEStWrAgSDvp38bZtJpHXicCo0Jg8ebLs3Fku+yr2y569++K2vfsqgmzfvgqZP3++6brSKIyKlzfeeAPx4jcY6aC8vT93v7dDjnkiP6Y4GTllg5xsBE54kXPsE/ly97s7uqMiXV1JEy/ePJjQ7iOiL/7zlO3W2dUlTV2tUmvVS0XjXtlRFZCi6hIJtOyV6s46abM6fK8jhg9CxYuT53LdddfJocOH+zDS2tYmd955p0msVeHy85//XN59772kCYyyneUyfvx4I140+oJ4AdKY0NieOV2sL7+W8S9ulp88sz6iaDn2yXw58el1cvpzG42A0VFHP35mfZ8uJi1Dy7K/Fvn6y8ERLzoKiegLDXEqPOetXZ1yoL1Bdhwql62NJVLSGJBdNSWyq67U/L31cEDKW3bKroOl0t7Z6Xt9MXwQKl6060iHLu/avbsPHypobrjhBiMutMtIoyRvLliQNPGypahIxo4d65a/IIll+2F0Gw2BkzXZ1flp6vhSRs8olJ/mbggrXHKmbJCH/rJLCiqapaalS3bXd8ibBdVyzgub5bin8oMEjJahZTVbX4t8ZSddvDj5L1ZnJ9GXFHhYs9E6dWIvu1Oq2xul9PBuKe/aLZsPF0hB3XrZerBAAhUbJFBZIFtrC2Vzw2YpPbRVDrTulLLKbSZC43f9MXygDDzxxJNGvDijiV544YUgNjSi/cknn8ipp55qxIXmuqjAUKEzdepUefbZZ+W5557rtz3//PNy1113mTLVNPKCeAHOqFnmoZPIffnV3+SSV4pMJKVPN9CT+fL7vJ0S7qeu1ZbLX9sqJzy9Lki8jJm5SZqtr+RvX4YXLw211dLWWCsdh7qtpaFGauNN6u0RL/Uh0RedT4b7TqM86AzYX8rhjhbZd3i/7G3dLWXNxbKperVsPPCZFFSvkq0H18uugwWyfd8aKWkolK2HCqWkrkB21xdKUdVqqajbC6dwmhIMPPLoo0a8OIm4mkCrI5B279lj5oCZM2eujBs3znQrqbBwEmud/BQd2vzTn/60j+Xk5PQxzanR/Br92zlW/9eoj5ap59fy6TZKATBSPdoS+nPD/O1BIsTbDXTZq0XySaBBHv90j5z7wma5du42Wbe3yRy3q77DRGac+WBCxYsTLdHfdTXV0n6oVnZVHJD3N+6WFz4vk1dX7pTlW/dKfU21tDbUBEVYopnO/9LZQfTFb6ayydo62uVQ22E52FQpa7cukxWFH0jpwS9kVfE7krf6JSmsXC5FVWtkd/VGWbp2oRRUrJCi+vVSUrNe9jVskh3NBbKi+DNpak3vibiw9PeBLuPy8ssvy/e//31XmKiAUGFy8cUXG1PBocLFibg4w6UdCzfnywlRzBEpTrTHGcGkfzvneP/99333zUCMbqMhmkXXG4B55OPdZqRQuCHQP81dbxJxdUI6jc5ovovmvVQ0douHu97ZYbqPokVeVJw01dUYwXLW9AIZ8dQ6OebJbjth8nq58rUtsrJ4n7Q31sbddaST1xF98f+BzXTTPvjqmv1yoHaPVDVXSXldQNYFlsrako9k0+5PpaD8U9m8Z7mUNm6SHXWbZF/NFindly/bawtkW+Nm2X24WD7Lf1vyK1ZK/t6VUli6Jq379bH094GuJbRs2TI5/fTT3Rl0HXGigsVJ0HUiIs5kdPp/fyapO+GEE1zR4swXo6OcnLJ1ll+dY2bHjjLffTMQQ7wMQcRl1ur9cvaMQlm8ucb8v2l/i+kiijxUekOQoDnysbXyzpbuY6etrHCFTzjxol1CzfU18qf3S+SIx/PlJ7kb5CQVQU+uk2OfWmeOOf7p9WbbXwr3mC6leASMRl86OoLXV2Lkkf8PcEaZbUtLa70UFCyTirodEmjZLRurCyW/cpWsrVoq66qWy4b9a6SoerNsrd4i5bXbZG/VVtlTtVl2NW6XksatsqN6i2zbs162NZXKtsNbZe2OJbKx6K/S3t7q//VhWeuD5uYWmT17tpmvRaMsKiZUuDiz7aqo0EnsnLlYVLhoV0+4rqJYNnLkSCOInMnotDyN+vzgBz8wYuaSSy6RhYsWiZXmoh7xMogrRbd3fSW/WlwqRzy6xoiVnz230Z0V9w9LyuWox9bGNUmdipX3imrdqI0zzNoRLx1f/k3kb19Jfc1BsQ7XyhtflMtRj68z4kiFypWvbZbcj0vlz3klMmpagREuGtU5c9pGKdtbJY21sXNgVBjV1daG5L6wbIDfD3CmWGN9vTQ3HJRDTful8vBOCTSXyNK6fPns4Er5eNfHkl+xWnY27pDa1jpp6miVlo4Waetsl8bD9bK9ZKO0djbLofZDUn/4oFQ3VMq2+j2y+dA2KW5cJR8Vzpb8bZ/4fo1Ydvugvb1DVq1aJY8//rg89NBDcssttxihoUJF81LuvvtuefTRR+XPDz9sFnDUv/tjDz/8sEycONGIF4266KilBx98UGbMmCHPPJMrBYWF0qkL86aATwZiiJckhgaDohJf/k1uXFAiRz62xo2g6AKLk5fuNZ+3WF/JVXOK5aTJ4YdMe027kjQXRvNgzpxWEJTzoqONqlu6pLXdkj0VVbKn4oBc/NImU64Klz++v10O19UYUdN1uFaKyyvl/Bc2mYjM0U+sk2c/3WESeeONvrS3twddp85h4zfEWHr7QCN45Zs2SMuBUqlT4dJUIl8c2ihLKj+RT3d9Jrsay6U9ytwtbe19P2uxLNldv18C9YWyvuavsrjwVdl5YIfv14pltw+0C9MxFTKjRo0yM+6ef/75EigtDfp8IPbxxx+biItGd3TEUkNDo3lHOZ/77YdkGOJlkPKv4DOaAAAgAElEQVRcHvtkt4m4BC2uOHWDyVdZtqPR7PPimsqwuS/hcmF+0pP/4l28USMr+tk5szbJuS9sknNmFsqYGQXmPCpsxs4slIrKA9JU35uc+2VTnby9bpcc93S3uPnlvCI5VNc9AilW4q5JBK6tDRpB9TWLNvr+EKezaYPa1nZI2tsPSH1TmXyx9a+yqXKdrCpbIRvK1ktjy6EBdU+2dbTKzupi+XzfZ/LRjr/IjgPp3c+PZY4Pli5daoZGq8DQyeOKthYnrez33nvPRF5UGP3yl780M+z6fb3JNsTLIERddHSQCo1wOS0aRdHuI11NWrt8NBm3v0sEOAJGRy4d/3R3Mu6Jk9ebbfpbhYnmv9RU90ZQVMgU7NgvObnd+1z2ymbzeV3NwbijL21tbcHRly+Jvvj9IKejNTQ2Sl3jAdl/eKeUt2yXbQ2bZGXgU1lV9Ins3BMQy+rer6Ojc2DfFi1bymp2myjOB1sXyLaqAuaASYH7n+22fPlys1aRCgwdJl0SKE1a2R988IErXnRG36qqA75fb7IN8TIIuS7aXaSjhSJFUVSw6Of6uz8LM7rWE3kZO3OTjJ21yURdzp7e3a2kkZdxMwtlf9XBPpGXd9bvDhN5iX/yutqaGqIvKfDwprtV11TIgcM7ZU9HmWzv2i6bmzfJ2rJVUlVbOSjnq2qslFVbFsqHW1+StftXDdp1MTme/2ylqmkUsb2jUw43NcuSJUvktNNOM4m6o0ePlrX5+dLc0upaU3NLv6y5pdVEXjQJWBN3r7rqKtlRViaHDjdl1CALxEsSnKiTtjk/O+vaTTJs95pEGwfVnJyXA81d0tzWKbv2VUn5viq5SHNenukWJw98UGLEi8l5aaqV7bsr5YLZvTkvUz8tjSvnJTT60traSvQlBR7gdLXGQ3VSVb9Tarr2SKC5WIqat8jqnauk7lDdoJ63vmavrNr8jnyyf4msLP7cvEgGWmZHZ6fs3lMmHVa7NLc2S2t7m+/+xVLPBxr90KTZX/ziF0ZQaJ6LMyeLjgK68sor5dprrzXDmPW37qPbErVrrrlGzjvvPJPzoqONdASSLviouS+6dlJe3hJpaDzkuz8GaoiXJDjRmwOyaFNNXHksyRIvoaONNCl33hflcqRntNE1r28xibmPflhi5n1xRhud8fxG2bGnShrrgkcbaTdSd55L/NEX/dtvmLH08MH+/XulcMtKqbEqpKy5REoPF8mawAqpaagZkvO3WIdlW32RrNy7TP6y5SOpaRnYeTs7LTlYXSHNrQ2ytXh997DsTk0itqTT0i6vTumyMyNJEuufD2pqas1III2EaKTliCOOcJcBcOZk0dwX7eZRc/7W/dV0dlz9rdtj2VE9xztzvuhoJj2n/v7hD39oxIwuFxAu0T2dDPGSBCd6f3Q00fDQFaOjRGE0B0a7kHQk0vAn1srxT+UHJeXGI15C53nRSMsf3ttu5nn5aYR5XjTf5cOCPUET1emsvDrvS3vPMgL6mZouMRA2+tLSEhJ9+cp3oLHk+iDZIxPa2ttl155iKSlbL3s7dktJ83ZZW7pcSsqKhuzetXV0SlNHk+xq2iF5ZW/LW1vmSMmBbQMqU8PxtfUVsqOsSDp1ZJQORbU6xbLapbJil+zfvwc2s/j5XLR4sZx88smuYHFEhYoMFRYqTkJn0nVm49XtGkFJdKbd43smpXMmt3Mmr1MRpLk2GzduTOuRR4iXATqwK0S86Cij/31gtUnYVUGi87uoONFZc/V/3X7i5HXuatE6ed39H5SZyeemLt8nty0KmM9CF2GMV7w46xnp8OiZy8rM0OpjPTPsqnC5/JXNZpkAr3DRxF4VLx9s3C0P5ZXInYuKjQDSOWN0xFK4yexUxHi7zIi+ZJhpl0qnzgfRJe1tbdLc0GDmqojnWG0UdxZuklZPeLrd6pTdtcWyr22nlLUflC3NO2RF2Qop3V0irW3tQ3ptXe2HpbPzkDRYdbLlYIF8si1PNpatksaW+n61Aa0drbKvZo90dmk3lA5HtaSzyzJdSoeb6qWpucn/+4n5uqq0CgideE5FhIoWHWmkXTnazaOz76qAiSRCVOiogInXjutZgNExRyw55aktXLgwrZlAvCTBid7uE10F+jfv7pBHP94tCwqr5bPSBllVfkg+LW2QNwsOGnFz9ZxiE3F5euleaWgLFj/6U1rTJrcsDMiPY8wBE21hRmdtI82B0QTdGct2yEvLy2RZ0V7zmXdtI/17c9l+ueq1La7IOe6p7kjN8CfWybhZhfLxpuAojRN9aWluDqq7Ji/7DTWWJB+0t4ttuj66xP7Slo7GBmnct0/qDh4wL+VYx9fs3SPtTc3u/xV15VJamy+7G4qkorlKihoCsnX/wCIe/TEVYjs2r5XWpjpXVO2p3yl/LXhTPlj5spRVFEt7Z3x5K4cOHZby8oCU7y+Vysb9ZuShbjfzaXR1mf8zKUkSS9wHGpHWVaE1wqLRFBUumpvy6WefuUm2GzZslJtuusl0+ajIcSIuKjZ+9rOfmcReNRU8/bFTTjnFdBdpeSqgtOy5c+cSeclmoL/8KnikUbw/lYct929dLuD19QfkzYJq2dPQPQV/p/21nDq1e2RSf8RLtFWlVbx4h04X76o0M+/qGki68KOKFh2NpL81sVe7mE54er0RMG2NvaKH6EtmW1dnp3SZmTi7pHZ/hXQ0t4rdeEiadbblqipp9giTPsf2vMTV6qv2SnnRainbu072tJbLvqYdsq96s2woXSfNHUMbcVFT4VVfV2N+d/YMx2632mVPVYns2LdO8kvfk883LZadFdvMApHRympqaZLCoi9k74Eyae1skQ4TcenOg3H8UFlVIY2HGny/n5h/4kUTdXVNIY2KaJfNRx99JB09jDj7rF+/Xs455xwTgVHxor/vueceWbV6tRlWvWbNGlmxYkVctnz5ctf0fz326aefdqMuKl7mzZuHeMnWh0Knxw/3U3XYko+218uzy/eZZQDuea9M/vhhuTy3okKWFNdJfU+05cuv/2a263T/ulSAzsarYkXXQsr9fJ+JzpwSI19Gh0l3y6evpbm+2oiTeK21sUY6D9XKzW9uNdEWFUOnP7fRJPeqUNFVqM+dVWhyZlTAnDOre9K7+p4cGCf60tzUveo10ZfMEy9fdnXJlx0dsru4WJobD0lDZaVU79kjnS2tUrtnr1Tv2S+tzX2jFNu2bZHq2lr5sr1V1r36lKyZ/Uc5ULlJijoPygZrp6zc9cn/Z+/Nvxy762vR91+8X+4PmSCB5OEbcm9CVl5eICRAwk2AQAi5PJIQICGQ8AKBMBsT27TBBmyMscE2HvE89DxUVXdXdddcJZXmeZ6nozNPUlXvt/ZXdarV1VXdXd3Vg93SWp8llXR0dHRKOmdrf/Znb3SUnbdorlo5ZEn6aLaYYn0AmZYfE/69mFg6hGA6gEqzCllTYVqWYGpUtomaBYQyDIfMwHBUaJYqWkVkXIT9OvUEvR4yuTTa7as7RTWqG3sffGfPHsG6UG/CNlGrPfjsDwC0u5F/9LnPfW4DvJAtoVZmGORcSUUiUbz//e/fCIB86qmnRuDlZit3U6to2Jzu/3spIYCFEOAOa172zIoppF/79mlMZ2Wx/P1TJfzqt0+fA1A8Lcx2PjGbwcuf/cSHxaIKf7GL44G80LJcak1HCnhuNiMM68i48LXHA3msqS3B1tATJp6rCL8YApvf2jOHZ2bSMDexL6zVIQZqpH15fVTPspH2+2HKsjixu44LTVagtFriO9Czbai1FoqRJCr5wjnPleUuNMtGz9GROfgztE8+gXYzgmWzirHWirD8v97vb7syxaRQD7IlI9tOYTk9D196EUvJWZwOn8Dp8CnMxmewkJpDrpEV7Eo6l0A0FYDTO3ui8azYR22j6/8/vRE0Lx544Qh0vTGYcBsWzLY7nQ3wQoaGeUf79u3bNYCRTKbECDUnnbgdjz/++HXfL1dSI83LZew0WuIPX5qaiy+9mtwAKdu1ejywYffXRPYRb3Nk+cpGphfwP743J4rr2mmRVSF4Ypvo8y+EhR/M8Ih0X2nigYmEaCG9Zc8cbt0XPQe8eOyLspl9WR1pX17r5ZoWupUKXF1H33Zgs420eRmnB1vRUQrHkFryQao3hOMyNTJ2v49AJYRU+gRsOYRqK4xwLYLJ5ROoV24Mu/JsOoV0PCQARleWkcmeGx9gUXTbN2G6JlRbRlMvI12JIFNPQHcHjJPpONAtA7qhirHoc8zqegMglytkX9O/cke1O+CFrAe1J88+++y536NeH7Ozs/jjP/5jMZHkiXoJZl599VUcOHgQBw8dEteba/+BA+fU5sf27tsn2lRsQREUvfe978W3brsNqfTZHxDuJdSN9hkYgZcrzDCiuPbdDyzjzXduHQcwXP/z7jl88JGAeB6Fup7b7uUCF04tcSrplrtmhcCWk0Q7KQIWtoO4LgKTOw7EBHgZZlTYViI7w8dvuWseX345fJ7uZQPo9PtD7Auu+4d7VFe2D8i09B0HzXIJYd/iho7F7TnoDWlaqO8gS6PkCygsLyPtW0Kv20ZLKeF4Yhwpq4SEnkNcCmAlPglFlqCp2g3x/ylkU8gnfFjtWeh220imtwpvdGCv+7TwJBOPLqNQiInbbA9Zjg1LtIoGIt1znttjDEILqXT8hjwBjOra7IPbb79jw4yOoIQAgg67xWJJmNcxSPHv//7vhah3eCKIy1JgS9EttTJvf/vbz6s/+qM/Oqd4H5flBBP/5nMp9mV+0g9+8EOk05kNIM3AxkAwiEOHDuGBBx4Qadef//zn8ZnPfEYAp69+9au45557BAM0v7CAUqkshjJuBDZxBF52sLMoqhq+FCVbjCJfyliz1xLidVVxQLnM+3+2IgDITkELX4usyUefCOGzz8dE/ctzUXzqqcCO6tO/COJvf74iWkZcH0eopebAJ4aMCsW+PaWJL70UFmCHbaN7jgwceTeHNtYqFcjyoB02Yl9eHycFXVFhqgo0RUGzedbIrVTMIhU535fFdfvoqwqq0QACp8YQmN2PStWPrFxFQMpjqbAIWbvxhKu9vgvH1oRod6vHCUjIrgz+duFYGjStI8S5hm0LDQxFuoZuwbYsuP2ByJmgx7AMWLaJPpmoEfNyUxZP9Hv23HXO6DPZFbaFmDv0yU9+UoALThrxMYIc+rF4/ixka7xrD9T89kXKG5nmOplcvWfPHmQy2fXPex/BUAgPPfQQvvjFL244/XKbCJa8thWLt3kf10lW6FOf+hQeffRRjI2NQdWu7w+QEXjZwc4a1rk4/TV85LGgaBPtJJ/o/9ozK0S6vLy00sCv3z59UcZmc7FF9KFHA2IbNi5rPXTX/V0utahrKZSqYtKIU0UEKF9/NYJKdTA+3WnU8eDxpGgt0TiPE0dT4YLwhNmKealVN7Ev3E83wMFjVJe3DwrpBFq1ynn3d6UOWo3qlidjoYXpqVjyH8GxI49javxp5OLTKCQXkIgu39D/i+0ziQa6FTFFxOrb0B1TABprvRj+2NNduIaOZGgWrTo1QC5Mghu23NhecndHeDmq184+8DRPbP3QpI6AwAMoHrjwHHQ90DI8Jr2V58vmeusWy3kj2RToHj16dEN/FY3GhNMvs5T4WpyAImhheeDIcwHm8737eZ83AcXHyOZ8+tOfxokTJ8+ZLLyWNQIvlxm++OOpEn7j9ukdBysSqFAbs1wa+KPcP1kU00aX8jwyN2+7Zx6/cttpPOern7M9rutuaFB2UmRRCFDoxuvFCXDC6DPPBPGhh/3ib+Y0vfnOOXzxxbCYUuLztjKs46i2JEmjyaPXzYGX+o1LOOFaDnRVRa/nwO2bCISn4IuMo1JcQMZ3BHP7H8fcK48jOjV2Q9DNm0v09C+wXbImo8noArGMC6lWhG16k0UD0DMAcq74HjYqOXSl5g35Xkd17fcBp4U4SXTbbbcJYEHBrCeaHTaOI1AgmPBiALyogOHaLg7gzUPlOfZyqikUGvgoaZouRqPZUuIyHlDhdnAdBFZsNTHd+oMf/CA+8pGP4EMf+pAY3eb9nHzic7znsvgabEt94QtfQKFYvOZt0RF4uQzWhW0fnujZbrkcrcpv3zWH//14SOhCeKGrLltPFwIuv/PdObz9viX80b2L+NcX4tCdc8EU7cg3+7wwKoAsiefxQpM5JkgPgw96vpCFYYAjAQo1MGwhUQ/jZSC96c5ZfPyJAMqVmmgrXSi0sVwqwbHts4TQKPPoNX3CcAV4ubDQ1DIMLE6dgKE2kCsEsByaQKq6hOWFVxGZfB6t0BSsXAhScAmZuWm0SyX0TAPNSuGSzO6udmXjEWTCK9s+Xm1WsBCcF/oV0zCRmJ2GLbXgrHvAeIyMd9sdYnE8UCMrDWiadN3f66iuH/vSbLbwwgsv4q677sKtt96Kj370oxvAhSzIv/7rv+Kb3/ymeOwb3/iGKP49XHxsc31z0zJ83p133im0LXz9fKGAf//3f9+YduI1gQeLIZAMa3zmmWcwNzePbDaHarUmtrVeb6BQKGIlEBDsDV/rH//xH8U2e9ocr9XE1teJkyevaWt0BF4uYSfxgzd84YgzfVmuZEqIz394piLWt5BXBHjZqn3E+ziltDfYQlvvQbO3NsXbDF6oWyEo4Tg0/Vp+NJ7AL6bTCKbLol00nFfUbgxADh//64f9ApQRxLCVRBbm3rGEAEJc38USpyvlsghtPIcVuk604qiubB/Qz2fx2H5o0oX9WFzbgampKFfiiGXmEM/PIV1aQCp1HPHlfZDLfpwx21hTJaiJEJq+eRSWZlCN+mEzxHBoXYZhQteubSpzJZ9FKRXb9nHd0WE4mpigEiPjbAUZmtCyiOBF14Kpa3BdW+wLj6IXz7dt9HoWcsllFNPXLr9pVDfePvA+E9Sc6IaBI0ePCkaDJ3+2cSiIZfaXoqrQdF1oSi6nTMvaeC2fz49//ud/3mhNsR1FducDH/iAcNhNpVIbXjMXAx48jjebTRw+fFiAIQIuTw9DMMMx7Cefemrgb3QN9ucIvOxQqEtjuQ89EhC6k23ByQ8WLmHyaB7vfdCP3uoZWL01MbFEkLJ5OWpN2C5KtcwBEGCC9EXAC83nAqkyPvV0cCOU0StuF7OLiK6HwQjBCZkZXi/EixhboQ9MEaVKTbA2BDgXAi7DlcvlzmGqXsuBjXf/4gheOL503bfjelS300FscRpG9+KMQUeqYzl4HIuhcSz4D6NWX0E2O4Vk+hRCwdPr7ScXZreFrH8WeimB/OIpRCYnkA360alVxNSSAAfbvMbV/FXH1+2JiaJ1Xxa2wHquGJWWNAmKJqFSTEFmYKljQ7ctMWXk9FzYahduo4rM5CTKsRis3iDTyDB0GLoMQ2mjZ7RwxmLO0809Lv2xbz+CZLF+3bfjRig637Ilw1bM+973PoQjkV1dv9+/ImIIvDYSX+f3f//3hdtvOpPZ9rPYE1N0Lixmm23xOL+f3W5XZCNRU+OxMGxB/cmf/AmeePLJawJgRuDlEnbS6upZYWyqaeJ3KWDdBpwI3QjHlu8ahC9up4nxHvPcdv/q4RUxSr3dsn9y/zI+8PCKcNT92JPh8zQvHnihJmUpUcLb7xuMP5NFoe0/gQsFt/ybbaC/f3xFCGw3J0azjUTWhushG7MT0CJAUKOBVDIJ0xyALV64/673geJKDrb/x9s+gVs+9q2bFsRcrIqFFBaWjyJamMOM7yACgWPoVvxYmd0Lt6+eq/0gE+HaWLW6OMPYimIenUgApYUZ+A7vR/TUSdSSUdjdNhzH2gAzLOUqTTewNVbOxNBtVrC66qKejSO5eBqm2hF6F11X4VgqIgtTKMT8ArBwikgzNShKB67SRK9dh+xbQiuTFK0jyzKgal3oage2JsGmm7AqCU3M9f5/Xc/id4k1AjE9Yd1PzQhbL5z4CYV3L+crncmKVo4XSUCGhK/xwosvXhBAa7ohtDEf//jHhS9MbpP55NnvzOA6Ho/jS1/60saEE0ESWaQXX3rpqreQRuBlh6Z0hyJt4YC7HaPC9g/bQTM5Ge96YFkIbLdjXvg4J4aYY8SMoq2YF6+4Hj6HyxAY/fp/TQtjPDJBvDDbqNsctIA+/IhfeLLQFZf5SEyHZtvoX54JinYQgRcBzO0HYqKF1NgBOLlYtZpNJBNxdDqds7qXtTPX/aB5peDFqxGIOXf/dNsVnDj5HOZDR5CoLaHQ8KNd8SM9dxiLR55Fz9LQM230TAe27sCxXeitBqRsBD1dh2s5KK2sQM8kYcRD6EwfQ3XsZcRf/DlWfvEzFCcOoh32QS5mRaaSpemwaIy3aTtooJeNhWFozFsaHDQrhTy0bkccRA1NR61YFOBp8/+4Z1tILs2hnkujryhYa1egFmJIrSxCNzR0pTb6uoJaaAmN4AIcRYGpdCE1ylienYDeKcNSmsgsTUGqZaCqEgy1BdvowtJlWGRglC50qbOe0t27aWv4u3SzghgyjBwAobcK20Zs6fCEHw6HBUstoiV2sL7V1TUhyDXXmRI69f775z+PX/u1XxNtIgKKv/7rv8ap06cvuu5INCpAzi/90i8JUHXfj350QRDC7aVPzWc++1kBXqineeMb3yjEvguLi1f3s3S9/5GvhRpugTw6W8FvbQNeCCoovvUu27WXyM4wJuD+qeJA81LYXvNyoXrjf02LaSXqYNqqiWqlKnQrdMMlW0Nx78lQQfwypPkc2z8/PZEUAIYMDHOMotnyBUW4Oy0yL4l4HNVq9XURF7AZvFwIxOxWBsmNUrquoVXPwrFVOPZZDxRL02ApknhsOTKBeH4KifQ4yvUZlGrzKOQXoMtN9CxDgBe32wXcM1jVe+jbLpRmE8V4ZOPXW7NSgd6VRQhkN5NENbgEORlB/sQhJJ97EoWnnkDrhefRfPlF1I8dgLoyj25kBWoiDjUZg14hsMmiHPbDbLdhG5ZYV7tagS61hUbFMi3IrdZFwQNdhdeaDZxRunDabfRNC4Yqw9FU9Lt1OO0qHF2HLndhdlqQSzmo9QJsqQzXbGDVaKLfLUJr5ZCLLEJtl2HpimghmZYpQNb1/r9ez9rqu3SzgJhWu4PHHnsM3/72t0VIItkNtlu8yR8yHV/+8pfF9A6N4i6l/uM//kOIdJ9++mnIiiJe59577xUuvlwvAQiBC917LwUUTc/MiIkkT9B7223fvgiDMtDK1Op1fO1rXxPP4Xtii4q6mI7UvXqfpev9D30t1PCF4Yq/tc1oM0eej8UGjMMj24AcApT/8b153H40uzFt9NmLTBtdbHz6PT/x4T0PLOM9DywJQEJmhQDm+0fjWFVbG3b/ZGXo38LJIQIYtpNeXsgK9mU3wUs8FkOxUDi3rXUZ+/0bD7267cHuRimCmGJ9IGjtdGURb3+9P6+7VTUyC9OH4Wot2JYuWh5s4+R90xh/5ruYmXoYC+kTiCaOoxDYh252DKX0CUzPHISskHEwIFdygGvhjK4DzipWDQu9HdDJUiaJ8r59cA4egv3KC5BeehKdQ89gbX4KZ2ZnkHvmCdgrp6Dko3AMXTA7m9fByR/F1dF02ihKeSQqMQTqUcS0POp2C4YzyDIS5Tg4o+gAhfGWK7abzEy7XkEpG4dh6zB6g/BFRzfQazcRPn4MRjULo53H4tEXsdbMoF2KI7k0CUupwTTaME1ZCHyFTuZ1+D3YrfrS/S/eEJ/93S4CCzrV0i2XLRyyE14MgOf7wvvJwnj3e54wXm1lUnfLLbfgV37lV/Dd731P6ExisbgYd/a8WzgC/erevZfM5iwtLQszOq6X23LHHXdeUvuHP0RK5TLe8573iNf1Jqh+/vOfX7X20Qi8XMJOGr7ctw14+YMf0DxuHtG6IZb7+NORLQEJ9TJ/8ZB/Y30/nS5fks/LdkWg8tbvMhpgDm/93qBVRC0N20avLmYF21KvDTxdCC7IwNy2Lyr0MKzHTqW2dMy93GLbKBqJoJDPXzF4uZGZl61+LcpSC/lMEpqq3hDbvptlrR+ACF4i/uMYn/gxFiOvIJ6aRjMxh/Gf3Yn55+6F0shBY+vGcZD0LSA6Pwk4Bs5oBtY0C7AckVI9GMG+NIpdJQPSacNOxlGfPIrCoRehnRyDdeQInMMHAP8M9FRAuNsOP1d3bVTNDhLdNIJSFFEphkwjikwrLm4H5RjSWgqZWlyYyfE5ZIvWOl1AMXBGVgHTgGuaaJYKiK0swjZUqHILpq4KXYuhyejUi7CUNtRmGYnlGai1PGxNxqohQWuXEAtMI5tYQs9WxH653v/L61nbfZf+zz//ghDHK/rWLsev9Xr++ReEsZtnRsfyDOG8iR22eDxzOi9KYNh4bivjure85S0i6JHAgd/N++67b0NAS/aD3jK6cen7dH5+XoiIuV4CGGYyXSr44OuPjY8LR1/Pf4asT7FUvjqfpev9T32ttY1+PrcdozLQuzBZmpdbD2ZEW2crtoTFcWuyLzSs2078eynMC4HKnz/ox3sf9ImxZgp1uT6Cl7uPnM+8UIhLsa7HvLyysPvMSzAQQKlYfN2Cl+0obpt6CaODbDYK3by2477XohhO6AtO4PTss5iPH0GoPIdGNQI7H0Jh4hVkF05u2h8qzE4da5qMNc3Aqm7hjOlgzWZbZ+cMBNkOQ5Ygp5MwogGsLs0CM6eA+dNwlqehVzIwTR26a6FuSojLWaTdLPzyEpZa8wjWlhArLiBWXkKwuQx/x494N4iqnkKyHBZC3H63Aagq1iQFa2x3WSZ6Shc9y0SfY9HdFnpKHXq3AtPWYNh02jWhUtgrddHv9WCbBizTgK3LiPmnkYsuQG2kYEkFWMbrh5m7nLrZQIt3Uifr4rElnt8KWRFOA9FMjvEABB0EKJ5rLpkWL8zR+9sDFbesF//+3jrrEg5HxLiyZ2bHrCSOQu9kWz3w4q17J+DFszr4zne+I7bBA1w/+clPrgr7MgIvOxTsHjd4zZwAACAASURBVIluL9glg7JnLCeWq8iOmA7arnXEdRC47FTnMlxkWd7142XU9R4M0xHCWxGiuK55YQtpIpCHKw80LxyFfmAiKRiat90z0MTEcpVd07x47M7y0pK4fr1pXi7Wl++ZFqxWGe1mBqVaGh35wv4or6WDb0sq4fjskzh05D5EQkeQq8aQbmZQqcbgNFJobmH9Typ51dKwqsk4o+noqSbWTBt9tncs47IPaJbtwjI1mO0KrHgIjSMHoc+ehBFdglLLoCjlkNezSKoh+OqnsFgdw1J9CsHaPDK1JUQK04h2lhHsLiPaWkK2vYxA5RTSqUWsqU1AUwHdwpqiApaFXlfCqm2h33PExFBi5jikYgS2o8C0DViuDU3XoBGs0afGoNeGKZgZAhhTqsLu5NCXyzD1gS7hZq2bCbR41V9dFe0TCmjZSiEwoHMtDetoIEd3WgYf0gCOAMaLCPCYFQIbL2SRLR0yG+985zvF3xTGnj5NK4Ievv/974vnsTVF8PCjH/1ox9s6Nzd3ReDFA0Be+4jvhz4zNL3b9c/S9f7HvtZGpdMtU0z8bMWWEDDwsZWyJpZ1+2v4yemSEO2SmblckHIh8MIpJYveL2dWIa1PG/3to5w2mhOPczv/86UwfnA0LnxfhqeN7jwYE4BmN1kXal0W5uch81fr62TaaCdiQq3VQMw3iWT4JJqVMGIR37Z+CTd6qaqCqWNPYP7UYzg5/RAWA0+ikDqKbimIVrWIXKWAqpRFIRVAPOg77/nMxpJKaZzRFaypGtZ0G6uGjZ6hwxUC4Cv7NSacbQ0dockTqMdCkDsV1KQCZoITOLm8F/HaaUyFXsK+Uz/DcvkEApVpZOuLGJ95DkvFkwi05xFtzKPQ8SGhLmHCdxCm0kBP7qLP7VVVrCoKeoaBUjSEjG8RPU2F3qzD6dZgyyU4WhmW0YFBwGKYMAwDmq6I1pm+3j4rpqMoRpfg8jnrrrw3a91MoGUY/N99990bOUH0Wnnq6ac3dCieHcDU1JTwSfFyhFh0vyWwYQI1p5OOHDm6UYcOHcbs7JzQ2XHa6J8//emNPKK/+qu/EvqX6wFeOPVEh1/6vrBNRjZoMOm0u+zLCLzs0KRude0M/vrR7U3qOM5MG//D0bZYPljRhSblaoIX1VkVo9L0eaE3iz9ZEmGL9HbhVBGt/oXPy/qUEYHLJ54MCMCxnc8Lhb1qpyFcVncyJs1JoyWOyDnO68LnZacHWV1S4DaKMLLLMItLCMzvx8z8OFpy67X1vg0F0cIiTk49BJ//FxibeRy56gIaxRCUYhJSLYtKPYViLSXaLVutIxONILMyhzUPvGgWbFmDa5loVEool6+8F84DYr1RQqWRRUWtIN2KYS42jpnoQfiyx7CUPgZ/7gTikg+Jlg+FxgrihVlEmksIS0y8DmFs9kXMFicxm5/EcuikMOVjy2tV17FmmuiZJqJzM8KDxtUUkZ69ajuwCnEsvPAIKv4p9K0B62KYOgxDhqF3oWm85mSSJECt1m7Css/V5dxsdTOBluGi8NWbACKwaLXPsrLeSZ3Oup/73OcEW0HwQI3Myy+/LKYYPQfcrcpxe1hZCYhMIq6fz//Wt751Wc7mm9tGlyrY3VyvvPKqYIa8MMcHH3po1/fpCLxcRjzAA6e2jwf4w3VRLvUvH/55UIALMjKXo2chQHrLd2ZF64ktps0+MFuBF4IIAo9wpizCFX/37oUNd122k7h9dxyIieWYc7TZYZe3Z6NFHPblMBkqiNRpkw67FwExXjCjb3lZCHaHL69lh92dFsd0UatgLetH7PDjqKUmkaouYiZzGqF8GB1FEgnE13s7t6uuoiCaDeKY/yWczLyMdHMBsl1FrlNAtlFBvVpDu5xDtRJGU8rBcQyYigpFks//3rgOemoHPU1Bj2OcBC48eVmWMDFkf/yKtrdHU602lpYmUGwlENOyWKwvY7Y8hZnKOOYqJ7BQmkag5kewvoJ0M4x8JYhcxY+MFEFUCiJRX0E4N4+wEkdYDmImsR+L/oOwNEVML7kUX3dl0epaoy+Nrgmfmb5uYq1RQ/bwK2gvT6KvNGCYGjRTgcbbuiRM6jgizfFo/somkGFd7//xqK7tPqBj7Q9/eK9gVKgBIcjoyud/XySpK8afebInCCF4eeGFFy6JoXzmmWfxtre9TYAFXlMgfDmgg668ZH/4+mRx7r77nstaTyQSFWJdAiAyMF/5yld23UpiBF4uQ7RbV11h/radAd0w+OAyO0me5rIMYaRnzN8+FsS3DmVw11ge//FKUrjr/vbQBNN24IVF9oQszFysiCdPp0Vy9PNzGUQyZQFShhkX3ubyT5xK4wM/9YlMI6ZJM1qAI9j3HImL5eR244KsSzqVwtzsLCqVQWbTzZhtxJNTcvIYrPA8lp56AFJyDppRQkZKIlALYiJxAvOFReSlIpQbRLypGipi1TROZRZx3DeBleBplJpJVHtVZEpLCPnG4DgyukoblWIOzUoeUqMEhx4uvT4quRQK6eQW63aFVuQMW0RSB6uGAYe1C/Sx1G5D7dTQVUooyynE1CjGW7MYq03iSOYIZounkGrHUJcrkC0NmqXCsHRIchuR6CJ0W0XX7KIt11DvlBFu5+DvhhGSpnBw+SHMBw+jpxGsmOgZlmhPuboBm9vPbdANrKoaVk0VfWYccfJIpcdMG4paE3oY21ZFmYYKU5cHbrvmzck83MxFQ7pHHnkEv/qrvypAAZmNvXv3bQQ2chkeIxcXF0WLZdgrhW0jtnLYdpmZmRE+LKenp3Hq1CksLi6h0WiKlhPbNNTUkDF597vfLR7b6XbquoGf/vSnQjPjMTgMiyyXK+csJ9pc69u9XUucRnl0+OV74Xr+6Z/+CY1mc1f36wi87OADOHx58HQZv3H79I6AyaUAl7fsmcWHHg3gdEbG5gvN6L47nhdj0RcDLx4bQlBibk6V3tQmYsbRV1+J4E13zm0kSbPVNAhnHKRKf+yxFRTLVXRb9W1ZlxW/X4h1b+ZUadO0kFlchB4JoXTyOMxsCo1MCqtrFlpmBUvFWcw3ZzBePIpj0SNYSMwjXytA0bVrlshqmjZq7TrS5TRW0ss4GZ/A/tQRTDbnkNfz0GwZTq8Pvd9DLuODf+olOGoVqlxHs5qD2mkK19ie66Bv6+iZGpxtpofy4TDWuh30VVmwFrsBXnjgTPsWoFXjaBG4KFGc7i5if/kojmXGkJHSUOQ2LK0LTZbEWHMpFUW9kBbPN8zzWzea4yBbzSDeXsJ84zBeWH4U6UIYjqrDMU1YZInMIZM5HrQVApTBuvi/a+TiUCtx2EoFarOIWjqIZj4upvlisyfRTEfFOq73Z3RU134f7NmzZ8PTxRtvZjyALCuiGMr4L//yL4KlIHjwRqG5PAW7f/qnfyrEuu9973sFwHnHO94hTO5oPsfvE0HGG97wBgEW/uZv/gbpdHrH3ykGNXICypsU8lo+NM47cuSI2N6JiQmMjY1hZnYWqQu8Bi0O2ALzUqf5fhklsJv7dARedrCzzgkbXD2Djz0RElNDuwFguA62mv7uyTB0ZwCUNGcVR2MdkWO0XFTFfWPxjgA4w+BFd9eA1b4AJWz/7KQIan48nsBv3DmYfCLj8hcP+fC550L4yKN+oZOhwPfN35nD558PCTbHmyrainXJZbPnAC6CvpvtYNkzXbRTeUA10cvXYMTKSM3MQW7loFp1ZKUQVjoLmGtOY7E1jxOJCZyIjmMmOYVgzo9YIYJSs4gus3HMs7bfO6lBMKABRVNRaJUQzkfgz/iwkJnDdOo0pjInMF2exGJjBhk5go6VQ0fNQrUkGK4Fw2Kej46+q2PNIRBoCC1HvVxEIhwcmFJlElg5fgg9a/tWSDaRQLuYw5pjw+WUkWluG7x4aQdZjmN2YZpVtJUkTgcPw1eew1TyJBaS85C0rjhwTh07jHppkMtCc72IfxFx/wLM89o2LpxuBz2phb7cgalJSFZWcLwwhoOJQ0hVErANghdDtLssJvbahmgjnTEUrDqDthDXFZufQuz4QazKdXQzURQWT6Pom4cjS9BLefTbLbhX2iob1WtyH1A74vm7eCPP1IRwTPof/uEfRKvGaxd5ZnQegPH+9pKhefvNb36zADIrgYAALxyL5mNchkCh1drZpGO7IwktDtfrjWt75U08ETzRfZe3CXLYFpo6dWrLH10EQ3T+9baZAY7U5ezmPh2Bl8sU7vJSVRwBHggmrhTAUEjL0eWa6op1jyckIbr9zTtn8OY7Z0QriRqad96/LJKmh8GLvUpQtYpOoybGni+16PmSLVbxxz9aEusicGHiNAEJfy12m3U8fDIlmBi+Jh9n3ACFvJtZF7/Ph+XFRXEg9y7Eetf7oHE9ynZ6KGYykKo19Ep1nEnXkRubQCMZQH/VRq0VRbiyiIQSw3Lbj9P1GSxJc1hqncZ8+QSmM2OYiOzHWHA/Di6/gmOBw5jLLOB0bhFT2UUsZlewkgsiVIpisRDEbGYZpzNzmEyfxnjyJA5FxnA4Ooaj8Qkcih7DgfAhzFSmEequIGlEEVODKFh5VHoVZPU0TKuNVsyHwuwJYdLm9kxMHv4FYkf3Yk2pwVFrcMxBj56AiL5BvF0vlxBfWRJW/GffP8eYjfPbI0yMZs9bTNtcHvPSkSS0pCpKcgppLYJwx4fJ2DFMBY4ilYttaInIfmmqdh6lzZwjtStB55j1etxBX9ew8vzTKE+Ooa90hTaFWUyJckKwOHuDzyBcXhgY4BkmbFOHbaroGQo6iSDy/lnRMmICtVHJoeibhSO1sNZtCqGy027CVRX0qXHodDbtq1HdLPvgmWefFYJdtnUIDghieJstFc+ojiPSHmAh+8JlvHFpXvNxz/vllltuEeCBWUQELwQsXnI0AZGs7Mwok7lKZHe4LZ4/i/f6Xj6SB448rxmGPlLLsh14od8Ln+OFQi4vnz+ReCU1Ai873GGra2fHpnnJd2z85U9XBMD4v3+4M2EuGQ0CA2pj3nTHNO6eGLjS0qWXE0qszRqaYfEv76OXyyd+EcE/PRPBPzwRENb/l1qfeCogQhwJnNguItPCthLbSJ6pXV9p4csvR0Qb6bf2zAnjO8+R12NdmCJN1mWzqy79Da73QeN6VVtqYOb4YSi5FFAuANkkzLgfpeAcAgsTWA6fQlUtoWDkEeqG4W8vI9YNYDYzgZnEYUSbMwhJs/DJM5ipT2KhOoPJ+jSOVU5isnwKU6kJ7Ft8EcfLk5hqzeJEeRITxZOiTjdm4deDCNoRxPtJ5Owi8noRdb0CxWmjo9UhGzI0x0DbkuD0LbRyCZT8c8KXxHIt+BfHUVycRK+ZweKJl7E0c+KS3jdPzgvH9iIdOL/nTkZEmNNdZtuo3iiiKqeQs5KIuBH4VZ9gqyrN7aeWZImiWbZ7HGTTKWj6IGOIAMZSZay2apADS6j6FtBzyKrYIt/IlGSsBOcw6X8WB4I/w0xhEj0CGIsMjIq+IUNKx1AILIiUbL7vVUMVgIXvsWdTG+MOxLpkmxxnW1dhETVwA3xmR3X19kGtVsPtt98uwAoBBq95Yvdccz1mheCEj7N9xGW84t+e+RzBwxve8AbhFbOysiK+Tx/72Mc2ppTYNtppplClWhXhkNwGz/13GDx55f3N5di+2r//wLbghRlOHvPCZYPB0K7u0xF4uULTOl66Zh9feDkhWBK2fgTAuID5HFkaCnIp5mV4I4W5nFA6lR54o3z9QFqs61Knkiji/e93MSJgfsfFSAOuh1EBnEKimd1wS8juNgfGd3vmhGvvl18Kw5AG4IYAplqpiAkjoXUZGo9+LRvT7UYx3Xju+FG0MhE4pThWCzFY8QDkyAocVYFlmpDUNhpqFQ29jobZQMduI1uLIZyaRUvPo6gmUTAyiHdWUC4FUOskUJSikLQSpHYOk8dfQl1KoWvVoNptGI4Kq6dD0sso1qNoyhk01SyadgNVuQZVaSMTCiAwO7chuFNsE3Lfgt43oazKkJwOjJ4Nt+/A7ZvoOSpC8+Nb+rhsXS7alYLQWm35uDMY+9zJvuTynW4TlXYKDTeHmBpCQF3BqdQUWt0Lj6DXqfta/xW6edrBZXBkuwanXccqbzMKgC0g5lN1NawZNjrVNKb8L+FoaT8mgxMw2fpyDfS1Ds6oMtZMapUIelz0GX1gmlA6LUiNmvgMEJgMJ2C76y29bC4Ji868uvq6dGMe1fmf4Ww2iwceeACf/vSn8Xd/93d43/vet9EeIlD48Ic/LBgUApF/+7d/EzoWr6gf+dSnPoWPfvSj+MhHPiLaRHTWDQSDArzQCI7ghmCBLEdzh20jz+TOY0o8UEV2hWLbBx98UIRKPv7443j44Yfx5JNPYnx8AsY2Gi6+X05OedvE95ZMbiXqv/wagZddAjCe+y5ZEIIBjjZTD0NgsbmlRAbl8y8nEG8McpB4aekuTHfQlvrIYyH8zjY+MtuxNwQ/nBLaafG5ntbl358PwZbPsiosMi/3jyfEmDUBDNtK3kg1WZdkIiFYl+KmOICbUesyXD3dRTddQ6dQQjq4jHYuDjOXhp0roJEpimUIIKLhZbRaVdgEEDbbD33o3RZqlQzcviXGgbPtONKJebg9BYrRgGUr6PdM9OwuDAYLurIIDOTJkCdSzehg0XcSlVoaqtlEo1dDQy/DMDooxMMoxNhi4YncRa/fh2xqaDoyGm4XmqPB0iS4zOHp9YTmZbVnboCdKy5OWFzismzVuJaDUjGH5ZVJNJwikmoUcTmA6dhJNDrbAKRLXb8QGTvrOhYLhiLDllS4XQV9ThgpuhDs6lYX4XYAk/kJHPIfQE1jG01HT9Ng64YARablwKjLWK11kZieQejkFOxGG2a7C62jwFB1IZSmZocsUK1ehKp3EAzNi0gDRwh/Cew4Vs3lRmzM67IcV4BpmsodOHAAf/AHfyBO7pwQ4lQRc4jY8uG0jtTtbpRuGOK6KyvClK7d6UDV6ORsb7AcBBpkRahNSSR2DhTa7Y4AMNTieO0igiyhq1nfdq/4Hb7QjxBV04WWx2NpKC6uVjmFt3uf6xF4uYKdt7aphTQ8Sj2Tk3Eo0sZthzMCIHhMzB+sxwjMr2cgtfQech3rnOcTAF1KyjR9X979AK3NdYTLMk6F8jgVLlxyzceKeHk+K9pGXh3157CmtgRAIXDhaDXHpamJYdvo2ZmMYF7oplsplwXrwqIocsS6nP1suIYLu6KjmiwOvuimjkYiKKaPpGgcrVwearuDdqMBfX3SiKnDnNpp1cuIhpcEi9KxOpCcNlSnA83VofV0KHYHJ6f2o9EsQDHbSBd8qEsFqI4iWkEU3HYdFS1bRsOWUHXKaDsVGHYX/VVLgBGmRBumgmohB70zEAYTrHBbtXIF4RPjsFQJ08deRmTh5AZ4EQefCxyALnRw4mek1xu0joT/yRbLms6AIdEJDAwLmXgciaQP0eQ88lYWUTWCmfgJRJNXJv7ja+QL+fPE0LZuwejIsBQVPZ4YDEtMGqmmjIwcx77ki3h25XFEiisw2xL0riI8a7g+S7HgFFpAXQaaGvrlNlxWrQu12ISUr8JSBywL92ezXUQiGRCAU4BJ0VIzUS5mUCrlrv+JdlRXZR94n3tO71AAy3YP2ZJINHbZ63zs8ccF2GDbiIDoxZdeuiygwO/DwuKiAFbHT5wQgOZy1pNOZ4QA2NPhfOELX9hRQOSl1Ai87LIGZvOl1LUF0zIcJ8B20QcfCeALrySEGy8f/3+fCCEvDUDMM8v1LTORNreeaJT3jYNpj+uA0qqLaaBLLQp22RaimR2BCcEL1/u9I3HsX8ripyeS+LMHloUehmPT/+vBZZQrAy2M56ZL1qVcKo1Yl60+H5qJeqaARqUuTlapxQkYiXmspZcgLYwjH/afs3xP+OHYAnyYqw5kW0bLaMHsmVB6GoyeBcPRoZsKYjEfDF1Bp1LEsafuRz0xI4CJZqsw2MZwXQFkuq4qdC6KAD8KdFeFarXR61mQmxUce/k5dIbcPsUBzLTQbraEXoOC3HwsuOHVY1s2rKFRY5cTOHJ7INAlEBCtGRcmJ51aLZTiUTgEZwRHlgrXUtB3DDTLGSGq9daj6zZC88zE6sLQTViqAtNxEC8tIa8nkTRrWFETOJk8iTiDL9cPhDywctTUs1rf6YF62xOMyfBIR4yE63IXrsb32EbHqGOlNI+j4X1YiJ1Aq1GC0VVhaSYs04ajW8jNr0COF3Cm1sVqtQM0ZBTmAyj5InCUwbSVbukoNHKwXW4DnVId2GSBbBuyQq+YmzsD6WYojhx74IWakMAVaEJmZmeFBobghfEDt37rW5fNcnjPG3bw3WnlcnnRbvpv/+2/iTYU/WN2e/+NwMsugheyKP/wVFgAE7aFaDD3vx8PneeM67nw3nLXrAAMbNv8+u3T+MenI2AzqmP0BKjZzpmXz6eYl9NJDIDkhb/cNvu8sDhVRBaFIlsW3Xfp7eI9TuO5aLaMP71/aSPQkblILP5NxoXAhTW2khesS2OddaHOhVNGPOmOWJfzPxuuaaNdqGDy8BiUZgtSMY3VRh79lB+9+CLakSU0Cmnk00kBbqqZNKrFgrhNV062EVzbGhicORoM14TVszaAhNBP6DrkRgmu1oLhdNExJZF0zDaIaetQHBmaJQtTNgIf0zXg9NZbFJa94fgqMnm07UeeyZSQYRAn2SHtSF9XsHDkVeSTAw8Ter/wgNfr92B12milUmgX83ANFcVMFJlEWHxe+oKFWYUma5CbTaiShmIyj25bg6PR/E1HoZVCvDmLbCeAolpBoBNDsBQ+70BLEHK1PHLYuhJ5VQsnodWKMBstaJ0Oss04Di/9AntP/gzxpA+qJMGxB6xUPhpDPR6HXqliZXIS7UwWdr0hGK1WtYZ0OoZ0KY6yVDoLCnmicGlaNmBlrsZ7GdWNsw/4P56bmxcsCU/uHHuORmM7/hy7658VWVGEloatIwIYplVXa5eWx3ZVvjeOi/Hxcdxxxx344Q9/iFw+v+uvMQIvu6h9YZvo1759WjApBCZsD/H2pYxREzRwHJnAhRcCoP959/m6FwIdMi7/zw8XsbTu/bIVeCFAoTldIlcRgtt7jyVEovQRf074wejroluq4Aloguky/u7xFQFYGCUgwMueOcHI/MWDPoyv5M/RusRjMcG6ULB7s0YBXLT4S1wzUIqlUEmmUc5kxEnbSsexSsOyuA/FxZMw1MEYsi7L0BVVHJBM2tJbNqRaA/UcWwiDX+adbgtdeX2SYP2EN3g9F7plQLXYjrEH4MExYTpMbz7LMFiOjWarcQ4AYTWbDVSr1W3fSyoVRyp5vsmUSzFttQhNUcQo9GAU2EWzVITFJOluF2q1ila5hFalAqWrCNBiaA5aTQudqgy92Yar0sW2D8fsQconkPGfQDI/h5yeRkFJoFD3YyE+B/UaBxu2W20kAwG0i0XUExko6RLMLjULCjKFEBL5WczGX8Hx5eeRzAUht5tYM1U4cgdKrYJWKQ+1WkYjk0QxGkK308Fy4DTy1SR0m1EDg/+D9/8geClXipCkzvX//I5qV/cBNSpTU6fwne/swW23fVu453L8mboQjlGztfLtb/+XqFtv/dbG7e3q1lu/he9+97uIxxNi/ffcc49o0VAEzBbSw488cs2ML7euARjffKzZrRqBl100rnve17jkKaHNRR8X2v/b/TVhgPfnD/rOY2wIXAhyvrY/LdpRw5dh8EK7fzrhErC8/d7FjWwjFkeeP/SwX7Aow4nSbCPxeQeXc2Lq6D9eDOPWvVGhcWGryJswotaFbSJ6utBRt98/m/t0s08YnVdkKTQDSq2NYjiBvrsKq6ui4PdDS8Swlk/Aii6hEQ+e96XPZ1JoNZqwLLYuzp6wG826AB8Xel1FUdBqbA1EqM0gc7bT98LxYpOjwttoWcS1bQtw1rcsZEMhqFIXnVIZ9WwWjqIKnU8jW0aj1EG1pEGSAKlhwO2qiAT9qDca6Bsa5h69C9MPfR3Vsg8Bu4YFJ4XjiYPoKNtPFpF9uRwzvwsVD/zU3kjtAZCoFcuo50twHTIyDvSuikTIh9P+vcjUfZjwvYqJxQOYnRtHNZ9AO5dCbmkBvUYVlWQY0dgSQmmGQ2bEZBgjCwhIxUSS0Ly4QneUyaXRbr+2gjxHdbHvjy1aJxTDcrKIIlYCDW8cmSPS1IcQzPA++rwQ0GxXv7vuA0OQ8tBDD4nPKiMDyORwfWRzOJlUb+yuJf+NVCPwsovgZV+odVGtynbOupxMejXYFOuZyyviPoKV4WXJ5FAAvNXFAy90zaVPy3++FBauuV7bxwtm5N90zeV00d7F7DkAhs8lC+O1l/gYixqXYTfdWDQqWBeyNiPW5QKfD8fF8uk5NHNFVIIJSOkyUv6w0Eb0mJlTK0NemUN47zOo51Mbz7PILlxCHhRPeKVq+byTNsFLszYwkrsW5Zq6+IVFgWva74cpy4P8E8eFJitQWy2sWg7UagvtbAWFUBK5eB5tiVlQPejNBtrFrNCxUA+TOfgztE8+gXYzgmWzirHWCiYXjog2l3jfNKxrd6ANhdtVy1WUi6Urfi9COM12mmZsBCpuu6xhoZBIo1WtwFFVSFIV2UYcC5FT8IVPYTk8ieMzezG1PI7Z2DQWkrPIlNki7CGdSyCaCsDpnV2/pzEYtY1en/oWTgF5Y8ieiy1ZFy/LyPN7GXbX3Vzec9+6/jf9XzhC3elIYmyZU0fD7Ast/3cb1G9XZN29zy6nGK/2643Ayy5OHPlKqvBv2Qw6LlT0WfnsC3EEKppYx+oaYwfC5xjUecWpJQp7j8U7uGs8L6ICNliP1Z5w2O0pTTw2lRI5Rd4I9N8/ERDjznsOxfDuH1MgzPyigaNvLFc5L6+IbSWOS9NJdfh+si6lYhFLi4sIrKxgdfWs4/CIddn686GqOixFQ6/aRtUXEcLOjS87LfzLOawVE2iFFlFI8c3mxgAAIABJREFUDNoy1UoJ7c7Ff3nzoMRe8rU4ONVLFXTqWzM2rqagXcwI0NKtVODqOvo2tTE2em4fZkNGI5KBkW/CqMowWjKKoRhSiz50602EZ08jMjMpAFugEkIqfQK2HEK1FUa4FsHk0nHUyrT6J8PjwrRdrCzMo1OmZqQ/OOnz9SwbMl14t9nOi+9PTjlZsFVLCGu1jnYeeKHRXToeEq/LZOBMNilAWo8iZpmj1m20K3nUElFYnSoqlQiS+RWkK9GB7kxnK88RLT7dUM9p6YkWYK8HWe4iV8heZ8p/VLu5D+6+555zXGs9EPOBD3wAH/rQhzbM6TwA41177Ir3PC9i4HfWAQyfRzbnpZdeFho4Cne9UWeu7y//8i/h8+2usy2LPzQikYjIVnrllVeE78vTTz+Nu+++G7feeiv27dsHqXt+cvZu1gi8XOEOXF09C14MZ1W0fijGvSSDuXU2Zakw0K7UFAf/+kJ827gB3sdWEh9/439N4x33LaEg2cIkry4bSObKiOcqeP9PfWJCiMDltv1RMVVE8zkCG2pgmBxN8PKb35nD948OHHO3S4veDF6ikYhgXdh6OJd1GYkMt/uMuLYLvVBB8PAYWqVz2zmuZcIu54BCDuXjE6jEYkJEa3oBgDdIqZIMrbvFBAxP3JqC2PwpESfRdxw0yyWEfYvoUUuTKUPL1yAni6guReA0usIbhW61cq6AwvIyUkvzcFp1tJQSjifGkbJKSOg5xKUAVuKTUGTpnMkkMXpuGHBp7ibaLbx/Fa7bhyrLkNfbPJdS1JxwX9ODRZZ1yF0dPcVCv2siML2MduPcdRWyKeQTPqz2LHS7bSTTA70BGadKPIqeTUG1C9syoXA7dANB3zQyqaAAdASa1B1ZolU0rFlarx5jEFpIpeNXlAE1qhsz24htIbaM3vOe9wjDunA4gmQyJQzgaFrntZI8l1uCHDIzb3vb28Rz2S4art/7vd8T7A0Fv9lsTrCGX/3qV8XzPADziU98AqXSlbOSXmUyWWFAxwkpTjgxl4nbx9fk5BTTs9m+Itt0uVEgl1Ij8HKFO5BTIcOXPWM5Iai91KwjgpEPPxrEV/enRG4Rze0u/twBs8NJJU4l/emPl0X9yf1LIqeIuhi2h/78J4PRZs/un9VTWnhlISu0L2/97ryICWAkQLN+ceBC1mVxYQGhYPAcxulmS46+nCLj0i3U0UpVYCjnOqo2i0Vkj08ApTzKh/ajubggWjAbz71BfoH3LAcuU5aH7zdVuEoLrqVDVxSYqiLEu/VyGY1gDM3lKHLhEOK+RfhnF9FpdWGQ3bAGkzl9VUE1GkDg1BgCs/tRqfqRlasISHksFRYha+eCB6lWR7NUFmCZ6yDr4ZiW0NeQeRHtqm2mdQQ7s74vuQy1RJEFP+RqHUZXhq2oMFoSzJYKR7WhK1t70fT6rhj79vKRWN1yDVqzA12VkQ2viFFxx+1Dlk3htKurEnTdgm6SebFF68vQuR8s4WY8OMg7MCya3pno9y/smTOq19Y+uPPO7wjw4TEmdKn12oSDVmEP+/fvF4DEY14IBJhTRCHuD394L370o/u3rHvvvQ/33nuvMJPjugguaBDnMTlsLX3xi18Ubf4rPgb0+oJh8VpTXpwAJ5w8wOUFT7744otXdZ+OwMsu617KsiOmhjaLbS+keWE7iGwK/V92KvQlgPFykLyRZraLeP2PTwbWU6DPghDati8lSnjbuhaG2UZ8vNXYHriwhTTMulD3MmJddvYZsdw+XHMNcrqFlYm58x9neF8lizPhJRSefxKVk2MixVg3LZSr106/csEDl6KjX2+hR62JGJk2sWa0sKbW0dMkFJNRtCtlNFI5RI5NIn7wOPIn59DNFVDJ59A16EPjikkjUxuAM7ILvZ6KJf8RHDvyOKbGn0YuPo1CcgGJ6PJ525APhJCZX8SqzcmkPvpOH7aqYvbYMcEOsU1lERiJ5df9KnQbpmyipzpYM1ahSgZaHQNqSYGT6aJXUmBUZLRSZdjlDtSaClO2By2ebVpyrkYDu7OP9XUCqb7wu5E4TcZgSMNFV3agmT1opglNNWHQ9G6dLaILM5O2k6FZtOqDtphggQiy2MbaJgtpVK9d8EIWhYGKxS2YEArWOYHkZRQRyBAADIOc7coZ8mchMJ+ZmRFsjKenIRvCaSaRhXSF74UgizlIXLcHWIZDJVlkkeYXFq7qPh2Bl13YibTCH77QZO43bp/ekfblcorrJ/j5Xw/58RcP+YWJHE3laIj3e99fEPqWQqkqAMyG3b/awvOzGfz3uwZtpU88GRDMzEDjcn55rEuxUBCsSzgUOgesra2NWJdL+YyIX1dWD/V4EdmFGLqb2hFiGdPEar0A5OPoTBxG8tghyI36DdM+MFptZGbn4XY6ArwwyDA9dwJSMoDVWhGxk+OoLC0jdOAoIgfHUDi1jKovBaMmQ5Y0aOYAjPVMTupwZHqQnxQIT8EXGUeluICM7wjm9j+OuVceR3Rq7BwWhcwJW1H0krEIfszBd496E7UjwaK+yGAQYg+OQQ8cF7Zsw+066BYkGGUVekFGMdpANixDi1uwIgacbA9S1sDJV6Yhp2VYdQdqWUMhmEY6uMV4uBgR72FVU7EmtbGqdgeJ2euPq6qEVqsG2+oJANMpF+FoimiXsT01mC4a6Hc4qdWo5NCVmiOh7k0CXphdRHv/zcvQq+U///M/N1gNalcu1ynX7fXw6quviqRoro+MDxmY97///QIQMWbgct8LTSz37t2LD37wgxsp2R7jQjDD98iMJraxriZ7OAIvu7Qjh0/ovNxxNCuM57YHMFcObNgaetePl9E0BmLDQqmCQrkqRqHJqhCcfOXliBiBpubFlZtYSZXw3p8si1wjal7uG0tcUPPisS6RcFiwLu12+1zWZWSodcmfEdtw0GsbWGtbaGTK6G6lIbEsFOcmoS+egr0wicKRV1EOnc9AXI+yFAVSviDCBwleLLmLVmAZbjEPIxFHcO9+1Jf9aPtCsOJ5WNkmnKYNs2PBUG3R5iE7kg6GsDh5AobaQK4QwHJoAqnqEpYXXkVk8nm0QlOwciFIwSVk5qbRKhVFaGKznBcTFcKYzrDgGC4SgRikUlMwMI5iQe/oglnR6iaMqgW30cOZLhCcDGF2/yzCkyEsHFuBbyyB0L4Qgq+sIHI8gcRyCdmVKtScBimnopOWoWS70MsSHNkaGNCt74dsPIJMeAVSJor6/udQmzsbn8Cq1MtYCMyJsEZd1pGYmYbRrKFbr6578wwmpsRnwtPweCzROqiRlQY0Tbru//NR7R544YndE9ienJw878QeCoWFgJeAgACAy+7ZsweRaBTJVAqJZPKiFU8kkM5kYAgXbFcIZ6lL8VpIbPNQj0IdzNGjx7YEURercCQizOfe8Y53bCRNc5u9dhdB0pe//GUxATUCL6+BLxEPXpsvd63rX9gW8nQsf7ju6cI20fD9lwte3v2AD2b/DMeN0KrXBEh5ZiaDNw9NG7E1xEmjr78awTvuG7SpKOh954+WkC5UhAvvhbQuhXweC/PzAsCMWJfL+3yIX9uGA7epQsnVUAinkc8WoWrnJwpLnQ7kbArG8jSwMo3Ikw+gMj0BfZONv/cr6JpoIyjMZQtFVtDKFeDIKta6MnrFGjITU4geGkN+Zg4Lh/di+cAhqPEsnGoXJsGLZEOXTZjUfHQVVDNZGN02yuUYYpk5xPNzSJcWkEodR3x5H+SyH6tKDWdUCWoihKZvHoWlGVSjfmiaClkbMBhaV8fc8RnUkmX0FRdGi5NdFvzzK0gsJNBv9BCfi8M/uQLfdACB+ZAY0W5U2qiXW0gvJZDxJVEpVlEsVJBPFZAPpJD2ZVGJNaBkO7BLXRj5DqyaCsegTsZFJZtDKRVHJbCApR/cjvSxVzacclk6IxwcTbBEtmrCVRS0K0U0KqVB8CLjH3QNrmsLxuYcG3ZOaPUs5JLLKKavLL9pVDfGPqA+657vf39jwojX1KRQrDtwVO6hVK7g61//ugAX3pSR15Ihe8IWEFs1DHC8UL3rXe/Cn/3Zn+Guu+5aj81wMXXqlJg64roJMrzxbMYIcDseffRR+Hx+dCRJeDl52yQM5hwHmq6jWCxh7759oq1FMMR1EVwRrHgAxgNnfI1v3XbbOoC6evt1xLxcxfYRL3uDTSGifdMd08K7hWzMPz8bxXiig089ExUOvFcKXlRnFWf6vQ2fF7XTwG37onjTnbNi8olAxXPN5XMo1iXzcsw/sPu/GOvCVtH83BwkuooNXUZ+FDv7fDAheVWzoJaaSC1H0GkpSGcKMIbGp4fLaNSgxfxYC8xibXICkWefRXJ+bl0MOlgmXyxAG/r7ahRFpQ41OYwSaLaRPHEabq6KbiiFhWf3Yuapl1CfDyA/s4jQyTFIiRRW27KY2OlJDoymIfQdjmaJYEKCoHazguXgcSyGxrHgP4xafQXZ7BRSqSmEAqfQt00hxjWlFrL+WejFOPKLpxCZHEd6ZQXVXA62ZsGVe9ArGuScjFaug2q+jkQogdBcAOGlEAqZEuStGK5t36sNua2gWe2gXWpCypahpEpwyjKMmg69ZUHt2qLds6q0caaURr9eFn4tnDKyXAeSJkHRJFQLKajtGhxNhq6tj0VzEoltpkYVmclJlGMxWL1BphEjGAxdhqG00TNaOGPRSXkk2n2tF9np73//BxsnfM/fhWDja1/7Gr7yla+I2wQUHntBvQuBjgcGWJ4Q9mL1m7/5m2I91Lg0Wy3xwyMai+Mb3/gG/vAP/1AwIx7w4LKcFHrnO98pwiE/+clP4ktf+hJuu+02MbX02c9+VkQNELCQaeF6PR0N2RwWYwn4PrjNXC+3mwLiq/2jagRednmH9oe8T7xLS3fxgxMFfPzpCO6fKqK/Nmgx/XiqtGNTu4uBF4IOmspR5/LIZEroXqhv8Rx26fHCGIDpSOEcg7qtisLcfC4nWBca0w1fOG10vQ8Kr7USmT+yjtWmgr5iQ2opkGULxXQZFtsgWz7HhlqvQPGvoHN8DNmXn0T68LNoxH2w7K2fw9ZKd7c8FnQdPY5AV6twCxW4xRq6y1Ek9h7HwhOvIjO+gMyJJZRmA2iGUrBqbZzRTejtDgKnZ2G3FCiVFmILAfS1HmzNRT6XxPzSUUQLc5jxHUQgcAzdih8rs3vR72kwDRu6wQBIU+hEGLHQVzs402nCzOfQiQRQWpiB7+A+hCYmUFoOop0oIhfJopApCgM7Cm0V7ex49aVWt90WOU/e3xw9Ta0EUE1mYbY1GIJBMlBORiDXSlhzLTTS9Kw5BVPtQCZQ0RntoCKyMIVsaBGNRlVMEWmmBkXpwFWa6LXrkH1LaGWSonVkMdpB60JXO7A1CbbShqNKG+7Fo3pt74PHHntcgASe2Kl98Rx1CWhYwyZ1w2Z13kj08H0Xq7eur4vrp2ldLDbQbfE7cfToUQFIuA0ELh6Y8q69lhUf88a0CYi8bfS2m8vSwfcnP/kJypWKyDHiMnyM49v79u+/6vt0BF6uEQOz+cIoAZFntIUmZlgns+Ht8p1Z/M6mnKTN4MVjSzy3XGYb5UtVHFjOCSDzxKk0ToULok1E75dhhmW74lg0WRdZlkesyy58NmrpHFJzflhtA41qW4zSKg0DjVQRxpCXyebSdY5aZ2D4jmPt9EvIPvVDhF96GtVIBKY+SCoWnidC+KehVq1fMUtk1Dswkhn0UikY4SjaCyvIHptC+MUjCD93BMtP7EdqYhmVhTjkeAVuQ4XbNWFKijCf40nf6SrQWxKSyyExkSM1qjhx8jnMh44gUVtCoeFHu+JHeu4wFg8/i55KlsKBodmiBWQpBrRKBZ1MGL22CrdtoeQLQE3GoYb96EwfQ3XsZcRf/DlWfvEzFCcOoh32QS5mRaYS85Us2vlven800MvGwmKM2WM3KoW8mJbSNA2GpqNWLIo2DulvghjvufRySS7Oop5Jo6coWGtXoBZiSK8sQjc0dKW2CKyshZbQCC7AlrswlS6kRhnLsxPQO2VYShOZpSlItYwQ+BpqC7bRhaXLIsnaULrQmW90lXJhRnVt90EymRQpy294wxvECd5jU3jb07d4twkWNj9+KYzLW4bKe41f/uVfFiLdp55+Gu3OQEPV7XZx4MAB0QKiRwvZGDIoDHX0AMvw67/xjW8UE1DUyrAtRcExR70JWjz2vVKpCgaJ66NJXf0yjSJ3UiPwcpV2LP+pnMTZfOFd900WRQYSx5W3Gpum1wuLLaU33TEjco4OR9v40qtJAWC2Bi/9LVOlKdZlCCNFuQQzZGQIbC5mSEfWJZfLCuDCEMYR67I7nwsKTSni1CUTWtOAJVGr4QAyUIlX0WlcWKRp8sRazqO7uIDaq6+i+uwLiDz1GDIHnkPp1Bhs/lpfP6BYl7F9hqxASWZhLYTQm1yBSnByaBrJl8YRfP4IFp89AN/LY0gfX0DNF4OaLmK13MVazUK33EW1mIbWbWFVkrDGYEqOBpMF6nbQKCWxFB5HPD+FRHoc5foMSrV5FPILUGpFuF1JnPR5DfcMVnWOIFtQKlXk/D6UYhk0c2URdBn3BdBqNCClE6gGl9BNhpE/cQjJ555E4akn0HrheTRffhH1YwegrsyjG1mBmohDTcagVwhssiiH/TDbbWHzz0DJdrUCXWqLjCbLtCCTcr8IeHBNC2vNBs4oXVjNBvomxckyHE1Fv1uH064K9kongOm0IJdyUOsF2FIZrtnAqtFEv1uE1sohF1mE2i7D0pVBijcNDG8ws8JRXf4+IAPC9gr1JwQBbMXQrM67ZtH4jS0k3qZ2xXuct3k/ry9W71rXvfCa62O7h6/5zW9+E6Fw+BwmuFAs4fCRI/jmN28VjAzdftk+4utSZ0MBMUEXfWJ+9vDDiNJEcwudnafbKpUHcSXXQoc3Ai/XIO9hWOSqWH0BPLZy4SUw+czzMUyluyLD6P0/WxGOu+mWJZ5LADMc/OhNG6nOmogH2Aq8XE55rEswEBDghVk5I63L7n0mCC4M1UK7KUGqyrDaDqqJKsqxMqrpKiqF2iVZ/pvtDtRkCo2p40j+4udIP/MECntfQuzAAdSCUeRPz0GtNDbEpGRnpE593chtwD6Ypgm9Xsf/396bNsdxZ+ud9wPZbx3qj+A39ldwROsbjGMcE+E3DoftcEz3jCfs66Xvdd/b6kVqiaIkStwXgCRA7DtQhdr3JSv3fakCfhP/BEiC2AhRXErUQcQJFliZiczzfyrzqbM8Ry8UaM/PUb9zk+7Nm4zu3KX+1XUKf7rB9h9usvL7b9n88h6LX9yk/HiVqG3Q2iww2C+Dk4Ixpl1rsfLkJrGj5VEJq9PL1YVri7Pc/8t/Zv7x37FUecTe/kOam99h1e7Rrjxibv4H1paXaFUq2N06pBGHvg/JhLEfEns+7VqD7fWNS2cNKTOrJTrffUfyw03i619iXvsM4+ZfOFh8zOGzeep/+QPxxhOcxh5J4L/SRfRGliQcOj7EE4jS/LxVZEYfdGnXigSxT5AdDV9UaruZrrHz8C5Br0agN1i+8xUHWhW9XaS0Mkvk9AkDnTC0c7E6pcYrhOHjIU0qpdtstXIhOWWqnfj563dtu7t7dDrdM+f0QicmTuj3B3lxrtq+0WjmERX3OCL8SmH5BfY+hRWFvLwnAvOiyHV8yL/4X+vnkhdV//JfH7fPTTMVhwH//L+v8c9OCNmpKM2//F8bZAdwME7fGnlRUZdatZoTl/39/VfOYyK1Lj8ZD6qFNlYCZqMRjUoJT3Oobu3T3K/m4mfdWpdKsYauWVc/Zhjhdbpo27vUHsyw+/l1an+5TvOr76nMzFBfnKM0c5elz/+O2v0blL/9K5uf/QObv/sfNP/+b9H+9Hv6n39G7Ys/sfbZ/2bj2p9ZufZnFj/7ivJ3j2k8WMZcr1B5vIq2UwNvTG+/TrtaJXUCopGH7wT53CElcd9qtPJpzKpYce3ZTe4/+G8s716nWJ5D21/g/u/+A4tf/BecQS3vIFJdN/urS+wtzkIScOgFHHgRREk+pTq9omCbugG7us7Y0IlLRQazd2je/Apv5h7R7dskt76H9Xn88uZRIfJP/WxHAQeGBU7Aoe1CqMYWhGjtJoWNZeLAxbVHhL6b17UEno0xaBE5Oq7WYX91HrffIPZsJoGJp7cpbM5R218hi50XqUAx8YFgIBPy8qFHCPzrb0r5TKPT5EXVvyhTGjHLTZe2FbPV9XNCk7dYn6p5Ucf4P66XjkhRejRV+m0Ql067zfraWl6oq/L/EnV5y5hQ32CUWJlpcxAY1Mp7uTx9YFl4po07cgmMmHZ1SLvWRx85RD+y9kFFVzI1I2kwwKs18IoltIU5Og9uo935Huf2LZxb93Cufc3gs99hfvsVg2++pfTlNSw1MHFrh/2ZGRa/+oHdW0857DmkbQPMKG/3tjsqDXk8KuCCSchhGrK29YCnzz5nsXib7c4Cw94ucWOb5oPr1JZmXiUejktoDDjwbA68gIkfcRgmHKh5QW8QgVDRjsA2sSslgr1NJivPYP4JLD4lWZ3D71aJQjUC4M0Igopeja0huEqszuHAsiAKyRyLLFITsmNia0TmDPCtLmHsEcRqPECIqwp7TYuxioCFAVEYEPs2hfU56ntLuMMykdkkCn580bGY+CD5BfhAIi/vydEnNezmajb/5D/Mnytgp8iLIiVK7l+9VnUv//Q/qvqYVzVh1L4qhfS0dlRIq76h/dRUkSIu3U4nnxitoi6VcvnVqMtEOozeBhbyDpIwwemPiEYddK1Ku1tiOOjg2Q6+GeBqPpl3iK+P6RQH9PY7aO0hjv3THmaKZAwrVQozT9D2qhjr26xc/5yo2yHpmGgrFaKySetZkdFaBb8+RK90sJsD3K7O7tIGg3Yvj3CcPu7J1yOzzcNnn3Hz9v/H7vZt6r0CFa1Kt1cgGZbRzpH+V2mtSeQx8WwOPZ/MDfO6mbFK70TBG4ekozglCj1CvUtU3GZ4+wf8ZzMEm/NkhVUm5W3ivHBXDdGM83qVzDZImmW8yl4uHPjK8aKYveV5zNoeB64Gngt+xIHjQhSRWSaTOGKcJXnH0P78Q8zWLnHiEMYBURrj+R6eImtBmBf5qvoWFZlRBCY0e8RGnbHdIfTfXAlVTHyQfMQ+EPLyAaZPq59/8205HyFwkUidIidqRtJ5BEfto/b9P799SS4UeXmuy3JZ99BpU9sr0qJeq1SRirioMQDqX3XMV6MuHx6wH1Mqce3ZClanQ2FtltLODMPODjuqY8X0iJ0ErT6ksKoekBOijodZ1qmuVqhvN2iW2wzbOubIzlVlU0s9dBOSMM0l8n0vwHFU54uNPjTpN4c095u0yw20ShunPiRRM3wMN0/bJMmESB+jFR32H1ex9nRKs+vUt4pE/lEBaxTGmKZ9jvhUiqVp2KbB47t/YPHJPzAz9z9Z3vyMZvkOVnuLUa9FvdukZ9Zoljcpbq2d8YkxHGC2Kxz6Dgeux4EfMwlissAnzYcg/rR8eq5sG/hszz6it7rIpLKLf/M66fdfYlW2SJKI1BiStmvQLDL65h9Z/7//L7x6+ZXjKF88+eE6ra1lDiObzLYYq/N1XSaOQxYEtPe2qarJ2mooo1K4tvrEdpvEU23xBoEiLIGadRTg+U6+BkoLRn3mWpU9WnsrpGqf6HwNIDHxQfIL94GQlw+kwBskE/7VH3d+9Awkta3aR+3rJy9raVTx5X6xmEdOVProKtbrdvNJ0SrColqiV1dW8lTR2urqmXSR0q/50GD96CyMcYcG6bBFUFslbK2wuXiDp8/uYRg6endEvVwlckNcLcAZRHiDhKCf4HVjRmWL+lqb+kqD7laX1maL9m6H2laT6laD6naDynaD+labYaWPPzBJDBuj1WHU7JC5Makfkan0iu5RXm1SWmrnx3W6JqNuF8t8fd1NHCWsLzxmqzzHzOP/ydr6n7k3/4/Ue0sMW9s4rRJmv0Z3UKbVL+dCbecdp7q3S3VjgYPn5EVNn7Y90ijM1Wk7nc5b871SEvU6DTb/228p/ud/R+3udRK9T6DaPwdDxopI7azTfnqf0Dq/AyxTqSxdpc+ULovLxPc5CEOyMGRvYZ69JzOknkOajpnECVGzyNKXf093/TFjNZVakZfQJwhsAt/C89S/qjPJxBsN8XTtQi0fMfFB8gv3gZCXDyhgF2UH/NvvK3maSI0LULovF5EW9Z7aRm2r9lH7nv4pl8t5umdjff1KpqIrirCoSIsiLc/F6FQHyskf1S31oYH6UVqipkl70O9yUFuncOsf6ZdnKfeWma88YaO0imHrhH6MbUbYZoKjJ7jDGH+Q4nUTvFaM2YsY9D36XYdB26bfNDB6LvbAwxl4+MZRSuQocpHSajfY2dzMpyKPvRSvqVNd3Ke53kav2Vh9C8+5WrrCchz2alvcXb/GTPVrKtoSdtyjbjSpDbsMen30Tp1edwfNrJMkAaHj4phnRfRU3VbmGmSek+unJIq4+GGetlGYDIK3G4VQaaje5irda38m3N0l84Nczj/yla7L66M8+bgEwyT1PDKVWlIRItclsew81XXg+6S+l+vMqK6pg2Gf2q3r6KuzjJ0hQaiGVTp46rVv5iJ1qkVafRFRdTiKyCj74DgVEx+k0+cDIS/v2eGqW+f0j6qBUS3SqsZFdRypWhb178nX6j21jdr2op/JZEK1UmFleTknJK+zlaWlnLwoIqO6ik4PXXxOXGQMwLvDg3o4lWbvEu0ssvLHv8UsLeAFbapmic3+Fg+KD1lsLlMbNDA1B0+P8iiMPQhycTtvFGH0fcxhgmMkhG5G6qekQUqWZPRqTdZnjwYHqjoV1YIdRRkH/iFxy2O43mOwpaOXbIyGmw81vKy2RBUON9tN9jolnlSXebj2gI2tp7S1Er2sR7W9wvbaPZLExnJ0uq06WreBOWyTRF5+Ht16mWaldM7x07xG3jbTAAAgAElEQVRW5FCliEyDiVK6VfaO2y/VGII0VmmxkFBNf06So7qk12ispLbHeORy4AZMgpDMU2QlJAuiPD2VKjL0XK3XD5i4HpPQzUcfxKrzyFUaMzqO28/rYeLYzS0MXELfPlLbVUMwp+BBISY+SKbMB0JepoTAqB/VXaS0XP77kzb/6V49N/Va/Z9677yf09Os1Y/65qbSPv4VTM3JybLswmMLcXm3WFCDFavLS/i727RnHhLWygyrZSaTkFHQYaX1jEVtnvvNO9zZuc3CzjOq9RqmZuMZEb4eEXpjkuiQ0J8QBmNGfQPHdHPxtcD18R0nV8zNxdj8hEk4we0GjEomjbUWetXA10IiLzm/ayiM6esDKp0K65UVHu7d40b5NrPaAg2/gRfbJNkYf5xRr66x/vgaidvDtQdovTquoeWqsVmaMI59stAjuaB7qLGzw4FlMHbtPGrxPsiLMs8yiDwLzzbztuZ2eY9Bs3L5frrJoR0yNl0yyyGzXRLXJwlDIhUlUuMNnhMgFaVxFEE5SgMpgjisF3G7RWKni6u16Fe20BpFAlOj8GwGTRULC3n54A9JsWwqfSDk5QOOEDhLO67+o/ZVx7iMDP2UH+ksen9YyMIUvdwANyRr9AkKHcrzC9jDGr7TojbaYMNYZEGbY3m0yKP9Bzzavc988TFblXX2ans0h20Mx8bzAvZ2S7QaKtKR5nN48khKkDDxU7YerdBYqtDY6lAv9TENLxdqez4YcDDs0dCa7DR2Wa+usVRdYK78lMfVR8x1ZlkezlO1dzGiOoZbw41MgjQiiNQ8H59x6nOQ6ETeMK/lGHRa7O9s5Z1E7eo+Gw9vkkUXp0JqKgLYqnOQxKSqyyg8Hn3wDk1Fox7fvcWg3cx/V1GX3fVliutLhGfSNmmuFpyZI8a2QRp4xCpN5HhMVHooUho+irwEeboriiLiOMjTSIeBwyQ5SgupYxUWH1N4+AMTe4BV3aO5/JTW2iKJbeK3G4z1EelbTpWJiQ+Sj8QHQl4+oPNV944iCecETy4mLYdHxOJ054+qp/kxxzn32McidBJteb84iJOMVrWK2euTtQccVgbU7z1AK20SDVrUa4vsdJcp2QVW9XWeDuZZMRdYGT1lsfOIueo9Huze4O7mDb5fvc6d9ZssVBd5Ul3icWWZpdoGG5Vtdva3ebo8x52n95gpPGW28pT7pRlu7t7j1t497hQfcHPvLt/v3GS+O8e2tUEp2KPgbtGMGnSzLjW/QhjpjAprNJ89ykXa0ixk9tafKdz5lgOnT+L2ScKjmhbVTTMc9PPXg06b4sZKLsX/8vpVG3NwNj0SJ7lwXZJ327zbyIsid76agXRK1VhFY1zLxFdt1nm3k6pd8dj465/ozN5j7Fh5iknVvsSWS2FlDXdkHrVbq46sICRWOjKhSxY4GPtbNNaf5SkjNYE66NZprT0jMUccWFpeqKwKgFM1wdu2SQzjlK/ExAeCgUTIy3SBIBuPc1Ki5iGdTAWp1+r/1Htqm6scRxEZtf1VTG2rIjhCWD7s+o/0AfMPb+HUy9BpQq1EWFintTHHxrM7rO48oWu38zTNtrXLur5KwdzkWfUB8/u32NPm2TafsWbPMz+YZak3z+xgjrvdGWY7T3hcfsB3y1/xsDPL49EzHnVmedCaye3p8Bnr/hZb8S7FcYl63KLhtxj4XZxEx/AG2IGNlwTokUkyjhjV92mvL+S6JFEasb58n9byLJlWZfnR16zMP7rSdauH89Ldb6lsrpwlFYrAqPTSe5Qct01VNKvSPQm1ShlPCf1FYU5gItdmMupjb67QW1siS1RUJc7nG4Wmzd7iMr7tkOWRrohMEZhIRWBcxoGNWSnQ3FwiS+P8uieBmxMWdY1ZrGpj0qNiXRVtyutuhLh86PuyWDa1PpDIyxQsgpj4QE03Xnh4h1F1l6RdZNIsEBU3sXc3SB07T//o1oiB02Pg9RkGA4xIp9YrsFOeR/drdNwSTbdEUd+gVV+j1lqnbRbQRzVqxVVm7n/JwCxjRX3cWCdIXKLMx/Q7tAZ7aHYVza2hxUN6dh/X0alub7L5bOEFuXXiEHsc4Y9DnImNmRgEWUw6TkjHIVnisr14/1wdl/MtRe82cfQLptAmyY8Wp3sxg+UKs1hO22AwwHGOurNOqxqnkZpN1CfRB0zUazUKQEVZ1OwXy+MgUKmu8KjQVxEvNcAujxwFjD2DQ9fmIPSIc9KTMlajD8IQxxhhDvs5BpQq8MkJ2O86ZSYmPkh+pj4Q8jIFiyAmPsj8FKvSx2i2KSw9oVdYI6xXiOtN+tUWSTrOH2R72ytooy7ROMKN/JxU+OYArVOiWd3FVfOStAK1vQWcfhutX0NXk4wtjSy2COIRQWrnAwOjJMwfpF5gsLw2Q7dfwQ01hlmfod8hCAyaxR2ahcLxjJ00j+zZoYeW2AxTCy/xiDyVKnHymUaq5mWShW8vkqc6ga64rZpVpAqTVbpJdQ4p/RnVjv62IjdxXmScHNexRASOTWy6pJbDWHUYOX5esJuGcU5qUpVOUhOqU5VGUorJHrEf5KQojBKCgc2kb7E/N8/2zGPioU6oW3iGkxdaq0JpEYaUe4M8HzIhLwICuRFMKwZUa3Pc9emVWkS+h6MP0IqbefeRsVdEb9TxDQN9MCBUGijqAR14BI7BqN+msLOCPuoyUsWfgY7ta5i2gR3ZOLHBzOMbDLUmTqhTaa4xMJu4iZOnglTBrZW4jGKbYWzSSzroSZcgthhPopyMxJFPEDr0muo8LPzQz8mKIhZqIOTOo/tErsnc3a/ZXTpqzT564B9FQN7IJ4osZUepo1z/5JzjhEorJ07yzjnVTVXZK6L1enn783Py8zbIi/objWbjzLTv2I8IDJvIcfPal1Sli1TURZEotW103ILtuoS6iW85uWaNOl7kRCTNEQxs0DzGHZ1UWd/CbWmYjR6Re9xqLSY+EAxw0gcSeRFAyE1hWjDghQyqTYbdQf7wLy8/INhf5KCygrl0n/VHtzlID/IoTeJGTKKIvfVFRqMhcZbhhA6aM8RyTYzQIsgigsTHDx0KhTUC38Hotrj7x//KYH8+JyZe7BKoNEaa5kTGSt28zsVJDLzUwU9d3EgnyyJsrcvdr7/A0PVXCUQYoWujPMqgCnIbha0XEYNY6cqcGCeQqoe5rZ+rX6KO0ynukfheXuiqakXSyGGcBGidKp5Kzxxv6/sxAztm6KQEfkjkKlG9McPBEMs6K4D3gmwkKbZ9pOXyY9fnNHF55bihGh6pCKVSyLWOdF7UNXo+4Ugn0PS8LkYRncByibwwH7eQ+BH1xQ3sYpPDvsWkZ8DQprm4SXttl8SRbqMP/rkUYxp9IORlChZBTHygMKDSDXqzy6ya9qyNMJsVJsMG4/I6WXGZ4cYCWrNGq1Qi9WJ6lQqtUpHYV9/sI6yRSeC6BGpiceIRpCFRFr0gEipKEvk+9rBN6o0IEgsjNPNJxyoNEsY+TmLjRTZ+Tmp8wjQgyRT5SHIi8lzxNZ/J413c8qwiJSrCoEjCySGOY99h6fY31Pd3z+yjun1G9TqZazOOAlrVPar7O7kO0TiPwkzwbA9b03AMF90eYyuNG0+Jv50fmTlDMpI0JyFvOuTxtcdXasCWidvrE/YHhAONQKWDbIfIdom9AF9XBOaoRV1FhRp7BQbFIn63x8bsLHq1RjwY5hEtFamR+4PcHwQDmZAXAYHcCKYWA+qbuBfQLpTplip0qtX8oR1VikyUYFlxjdbyDJFukbpqTIBOZHqEdoBrmnk0w+wPGdTrR2QjTTCsEZZ9PJ9IFbC+aDtO8aMgr5tRtRzZOMtrYMJE6cK8jDBESYymIjunilc1bUiv17vwWsrlIuVS8cz/q3SO0WtdOH4gTzepbpsoyoc9Okr8LZsQeAkjLcLo2fiankckIl9tmzFRXUCOlde3KFLyITvn9JFOeWub2HQY7FVwq21CyyX0AgLTzdc3clS6z82jNb5pchC6JLaB0+8yajdwex2G1RKtvW1JG33oz6QY0+oDibxMwSKIiQ9yDKgohZoG3ddp7ewzTidElktzbR2vWOCgsU+0t0J3YyWfSeRrHrF9lJZpVMuMhhpRpFIXL1MNQ22Qk4/LMOY4DqPh+URE1WYMh5fvf56p9mI1/PC893Lp/cs6hY47dcbJhDSaoPUdem0P0wRzGJBaLuO8DTnNa0ueXf8rpceP8gGIuXJtp0Nle/vSWhcVfbksDfTmejEepm7kv/dbHQaNNqkiVXGKq1uUN3YYNtrEKgqjSIxhUH76mGzYw2/WaSwvcTjsM9jZpLmxltfUyP1B7g+CgUzIi4BAbgRTi4EkZfXpAlq9RXdrH7PSoby+QxTEZGpmTr+DvbHAzrd/oVPcIVSKvNmESLXjZld5uCa0e50zD21FXrT+kZDc+7A0VF1Sl7yv0kthgt4c0C33cbQEXYvRdDULKsPXhvj9bl4QqwhLaWWJ3n7hxf7VnV3mbt/O01z5dacZhm7gKeG34216nR6dVvutEBaV7gq84MVAxQu3DSLqhRJ6Vwn5uYSjEUm/T/HefZJSmazXp3T/AebmFugGdAe4xsX1O2Lig+QX7AOJvEzBIoiJD55jwHX9PK2Q9XR6a7t5Yefz9zIl4d+pc9DaR9taorhxpKXS67bRjdFrcaRIS71xtmPmXdig3cUYnB+xST0HvVXFVxOYT7+XjgkHFsOdKkFDw2ubuCM3HybpheM8GjX3/XXmb1wju4Ao5CQiT3MdTdEO45SNpUWMTvtoQOVxdEeRG9s0GV1wnq/3p+pyiojdKE9jeYZ3pUJglTrLBexsm1TX0coV+ls7oJvYlRp1JXZXbzDRdCI1VVs+H+IDwQBCXgQEciOYcgykcYrf7LJ16x6j9qvpnDQKiTt1aNbpPHxAt1DIi2jD10xAft/mmjbeecWm6sHtORQWn6APTl1bkjEst7H3WozW9ukt75AMrVxmX5EQ11eibzFms8yoWry6P/OoR0AaqiGPx9ov6SQnSq5tYx+nea5iUZLkvlYaLLbtY1s+mRMxtkI251bRh1c7VmV9nW5xjyyOjpSzwwhHN4g9n2qxSLtSy1uvVRrwQ6+lmPggmUIfSORlChZBTHxw5iHphVjNAaNyl8B5VetDa7WoPXwA7QadmzfQlpfyB93LB+z7k9O/zDKldaKmLJ/8/9AldUak+XDGl+cZuT7DrQLDpR2sYh2j3mFtbhFjZBGo6IYaeHgc1VAppxc6Lq8xsz9Aa3dygqCOke8XRrimlRMhFYm5qMA3j84c/x21jaol2l1ax+4NCCyb2HEJRibhSE2TjvGdSzqe8s6il79bnT6eZuC7NpX1lWOCNsa2QxxXjQ+YEPhCXj40hsWyqfWBkJcpWAQx8cFpDERKUTc8wK6M2HiwcPZ9NbyvW+NwZ4XmXz+jO3MvF0TzlVZK7/3Vr1xmmeMzHozIVK1J3jIdchCMOHAHZJ6Zy+tnYcywXGf37izFHx7SmFkg6evYpo0dxnhxmncahd6bRZYam9tUF5eZxCq6MWacjIldl2d37+bRoSwdE0UvO7DUv7EfE9ohmZtwEExwzYCREeC2HZKqRdZ2CLo2o3KHuGPg9l1CVTitWtYvSMmp1vYsONkyrojUOO8Q04s7TBQZClIsK8HzDoiCMYGrirEl8vKhcSyWTaUPhLxMwSKIiQ9OYyBv+Y0yBsUWtaUC1jnpCPXgmwya0ChiPLhF6e5N7OFgaubhBCOd6rNFUsPIyYsaZFhZeIRZ2mTSb7F77w7thSW2v7/D7g/3aD5ZpbdWJujb2KaHp1qJVddRrCI2Fz/EVbtx7Htn/RMnZIpEKUl/RX7CLB9CqupNXMPMoz2qGDoOM5JAaeCkefdWaiVYTZOg4+I3bVp7Q2o7Nl4xItoNSGoZZi1g5vocdsUmGiS4HY/mVoXK1gXprDhl4rkcmDoT1zqamH383lidpxovEKZEQUbopaReQuIeC9lNwVqKiQ+SKfOBkJcpWAQx8cF5GIiDhEwPONAjhtUO1nk1JFFEa2EWf/kx8dIszdvf0NlenQpMRY6D2WzmwwcVeYlsi9HmKmmrQbC/z+Y3N2g/WUBf3SYqNohqGokWExpRHnVQaR4VHdlZXnml/fukqRTS4td/pfz4aCTBi6GMx91VqtU7F6YLIpIgZX+zgNnW8ghM4kT4hp9HVrxBSNCLSIcZhxZszW7z7MYzdma3Wbq7wdq9fba/22br+ga7D/fZX21T2+jh1j3MuotRsXFqFn7HJLGjozTRqXM1yjsMbnxBf+Hl+ITcT6q9PUyOyIuviExKs1hi2Gi814naYuKD5GfkAyEvU7AIYuKD0xjIpwsHCanm4tT7NHcqNGotXO/srBvTMLBrZYLVOdiYY/ezv6U79wD/lIz/cwn+d6Uue6YwV6VQbIdRvUliuxxYNlmrT/XBY/Zu3mOwuMZweZMnf/kat1gj6VmEiryYMb4dEvpRrjDbqVSP5P999YA/IiQv/k4cMdrdxq3XGafjV0iDSgd5QYztBXmBrWf5LD5aYFQbMFZjBUaqsytifXGD/aV9xsOM4kKR9dkN1uY22Vzcpl5sMOzqDDojKiv7VNdKdFs9Ws0ujXKTxmaZylqNbmGIUzOI2xZBwyDquySBqpNRNTZjkmxMe22elf/n31O5e/1Mq3i+JlFGZPsklk2ntE9PkRf5bIgPBAMIeREQyI3gZ4QBJcA28SLctkZ5dRdj5FCpNglOtE+ftGDYxyusc7D5jIPZB+x+/jmlxQXC4CXhabSaeCd+f1cS+YmqyVGjBDSd0qOnpPUe1naZpc+/Zf6P1xgsbtJb2mSwvotVbjDR7bxjJzMTAi04mt/kRbnCbN51o8T7NI/ET/PBh4Gn2qeDfJ7QOI4Yq4nSqiA2To8Ijh/n0RvXifH8MYZ+RH4SM8Vru9h1m1HdoNcYsL+9z/bCJjsr2zSrbewfIcmft1vrDlrPQG9rmLUOTrlN0rEJ+j7+KMK1jqZLj40hNPYZdxsXdpkdqDSZ55L4wdSk/8TEB8kU+kAiL1OwCGLig3MfjCp6YftMNIexE2OOHGw7olXpEKk0yLn7xLiDLs76BsbDe9S+/ozKrc8ZFteI4vP3CcLw0mGGP8p8n0wbMFaTnZtd0lYfa3WP/W8fsvSHb6jeX6L6aIX2s0207TJRT+fQD/F1g82nz4hHDk53RGFpk7GXEXspQZDihxlhqjpwEsZ+RHF+gWG5yiQZ51orfhDnqaU4CAmdkNAMicwUdxhh9yPckY85sLAUcal59HY19teq1PbrjDSd4MTwyB9jlq7nc56e/64E68obm/RKNULdI7BDPDckNj0y2yULfLIgJAvPRr+yRKW1Nui2mnJPkHuCYCAV8iIgkBvBzxYD/Uqd8sI6kR4w7OlHrbTDgGG5RXBiyvJp833Val0lWHvIwdNr1P74/7Jz7U/0dncJ/fDoW/1x67HtePR7g58cJQoGBkGpSlYuE+zsoS9tULv7mJ2vbrPzxW1W/3CD8oNVuktF7GKXdOiSWopoOFgDLX/oJ5aDPzIprW7nHTmx6roJx7jxAUaY4PkRh2EGpgcqmuJEmMGYgR3l4n6h6RLqLpEWkGgRyTBhPJrQKjbZXN6kvtekVxliDpy3oqFi6Sae9+o6KCKkSMwr20bHNS05wcyYeCnj6OzxbNvG899tZExMfJB8BD6QyMsULIKY+OAiDKhCU9/28c0Qf3QUTQhGCdjQLfYwhual+Ak9j6DTwFpeov/NN/Q+/5LdP/4D1e+/oP3kHrFrvigejd4Ai4Ht4JRqREvbZLMbuIqc3JyjdO0+W3+9zfLn37P29T0qD5forxVwKy0mHYuDfoQ/iLDMKE+7HJguB6qzJi+sjRlHKaHj53o3kRKnUwWtUZJrx2RBnGukRIZN6kd4ro+lmXgDndhwSE0Pp6PR2C6h1TtYfYOdtS16vf6LepmrKOG+S7Nth/ZbGE8gJj5IfqE+EPIyBYsgJj64DAOKXARuRGzFhFpEpCf09nt0Ch16lR7dZv9Kkv+hbuCWygwfP6T0599T+csfaH57jcL339Pf2qPxdAG3O3xRTKqiM6YxOBZyO5LdD8MQfzBALxRoz89Rv3OT7s2bjO7cpf7VdQp/usH2H26y8vtv2fzyHotf3KT8eJWobdDaLDDYL4OTgjHGG0XYSsMlSGjuFNCbnTxCoTqMQtfHs2w8w2QSJ4SOl6eEVO2LqjNZW1ymtl8+ivh4Hr7tYmo6zsjMX7drDbbXNz44SbnIPN+n/4ZjCcTEB4n4QMiLgEBuBNOOATWRWAmYxU5CZESkVkp1a5/mfjUXP+vWulSKNXTNuvoxwwiv00Xb3qX2YIbdz69T+8t1ml99T2VmhvriHKWZuyx9/nfU7t+g/O1f2fzsH9j83f+g+fd/i/an39P//DNqX/yJtc/+NxvX/szKtT+z+NlXlL97TOPBMuZ6hcrjVbSdGnhjevt12tUqqRMQjTx8J8jnDqmhks1aI5+KrQhTvVKj2+4eqdqGEcXd3byuJAyDlyq7x/OJPvTaiIkPBAPZB/GBRF7kwycfvmnHgHpQq5SKEi+zE1JTiZiFBJaFZ9r54MLAiGlXh7RrffSR82o78RVMEYVMzUgaDPBqDbxiCW1hjs6D22h3vse5fQvn1j2ca18z+Ox3mN9+xeCbbyl9eQ1reQ1ra4f9mRkWv/qB3VtPOew5pG0DzChv97Y7GqF1PCpACfBdIMmvzA/CFwW06jqGw+H7ae8WEx8IBvi5+EDIyxQsgpj44FJioWTrwwStPcAdOQRGQOwFeKq403bwzQBX88m8Q3x9TKc4oLffQWsPceyLi3qvYopkDCtVCjNP0PaqGOvbrFz/nKjbIemYaCsVorJJ61mR0VoFvz5Er3SwmwPcrs7u0gaDdu9MlOQy8iImPhAMCAYSIS8CArkR/PwxkI0nLD1ZoF1tHQ0BtD0cR9WFBHk7rkopafUhhdU9DtwJUcfDLOtUVyvUtxs0y22GbR1zZOeqsqmlIjkJSS5JH+MrHRXHwzJt9KFJvzmkud+kXW6gVdo49SGJmuFjuHhKhySZEOljtKLD/uMq1p5OaXad+lYx11hR6R4lbW+a9jltyCmWphFeoJorJj4QDAgGEiEvAgK5EXwkGAhjAku1A6sC1QjbinHtCN9JGIdj9O6Ielmp0Ya4WoAziPAGCUE/wevGjMoW9bU29ZUG3a0urc0W7d0Ota0m1a0G1e0Gle0G9a02w0off2CSGDZGq8Oo2SFT0479iCxNCXSP8mqT0lI7P67TNRl1u1jm6+tuVNfQ2uwM5mj04X0qJj4QDPwsMSBpoylYBDHxwZUwkGS5EJsiJ6F3gO9OiJ30qADWdHA0PdduCZUkvmpBNhMcPcEdxviDFK+b4LVizF7EoO/R7zoM2jb9poHRc7EHHs7Awzfc47+p6kxSWu0GO5ubpKqF2UvxmjrVxX2a6230mo3Vt/Ccq6vSKlORGSm4FdzLvU8wkAh5ERDIjeCXgQE1n8h3JgRmSmL6jB0Pp9dh9tZtbFsRjzGBkxCaCZ4e5VEYexDk4naqPdno+5jDBMdICN2M1E9Jg5QsyejVmqzPHg85VC3KSpo/yjjwD4lbHsP1HoMtHb1kYzTcfKjhZcW0quC21x9cqZVbTHwgGBAMJFf0gUReBCxyw/iZYUCpt4ZqSKGXkQYJcRAT2B6+qUTbQsaxEniLCe0Yzwjx1ZRmNezQiPH1iNAbk0SHhP6EMBgz6hs4pkscqGnOPr7j5Pop6vfUT5iEE9xuwKhk0lhroVcNfE1priSvLbxVxMYwzB/d/SQmPhAMCAYSIS8CArkRfGQYCAIiz8fzY/wgIwjUXKGIsTZkrOs5sYjchMBSsvkJiZeReOOc8ETBmDCeEEZj4mhMYbdMq9EmUaq2/nEkJUiY+Clbj1ZoLFVobHWol/qYhndicnOKZQkx+eBYEBMfpL88H0jkZQoWQUx88CaTm+MgwPEiLC8mSg44iCdYu9ssfPV5PqE4jcck4ZhxfEAajl9YHGf4UUwQpfhBhOuEOXFREZxY/av+RjAmHfiM1htU5gvYupuLyb1yDkmK53uiwSL4lXuYYAAhLwICuREIBq6UOgp8jyBMchISx+M8zeN3W/T2tvI25TBICaOULD0kjpSqriI941zi33WdIwKkjuOFpH7MJBgTOaqeJsTpW9TWChiNQd76LGsin0vBgGAgmSIfSORlChZBTHzwJhhQ84bymUNhSKosCsnSmCw+GmIYhkk+OVmNF8hTPclRx1KWxIzjAMYpiesy9iOs7oj1J8u5jL/X1FibfYZj2oJNwaZgQDDANPpAyMsULIKY+OAnKeA2yhSXnzBOI4IwJMxVecd5OieK4/zfWLVZH9eqpFHAYeyxvTiP3etz6Ccc2jGDvRZaqU2/1EDry9BA+VzK51IwkE2tD4S8TMEiiIkPfgoGQs/F0oekSUIQq/qXhHGWMhmP866hLEzyGphETYS2RiRhwEGc0i7X8IY2mZvmqruO7uD7geBR8CgYEAww7T4Q8jIFiyAmPngbGHiutzIej6nubbExP8dBekDmq/RQxDgIWXx0l0GzxTg6IAsmuCOPUU/HdY+HJoqJDwQDgoF0+n0g5GUKFkFMfPDWyEumCnQzbE2jW65xkBwyCcckTkQWJTjDIZHr45kBel/PBzeKBovgT+5BgoHkZ+aDnx95KdzgN5/+ik/+5m/4m+f2ya/49XeFM9t+9+nLbX793elj3eDXx+998pvCT9rnYjve/pPfsnfO+y//1q/4TeGi6/3ty2v99Mar+5047snzvszOnneB33xycptzzuXkOeT2Kd+9xTXd+82vftJxz/PHL9lUiigLMg6SA2IzJFMjBNyEyAw4CMYEpo9jCWn50OskJj4QDGS/EPLy3aenHqKn7Pjhnpz3QD/zYHs9ebnqPped73nndeb9S4738lzSdp8AAAZiSURBVMH+kky9W/JydpuT5yDkZfot7y7yk5zA1LbLGJ1RPpPI1zxiW7VQn57yLCY+EAwIBrKflQ9+PuTlzLf/1z+cTz/QX30oX4G8XHGfi+z5Q/9sBOfs8c6PGpwgFq+JKrxN8nIpCZTIy/RbctRtpGYVjfoageNgj3RCNyTLJh/+/MTEB4IBwUD6CyEvJx+gn3x648SDvMB3JyMDl0YjTqYlrkZerrLP5ed8SUrodamjE4Tt3HO8kNCcICQXRX3O2/aT5+m48675V/z604vSOwW+O5XK++TT3/Ldeddd+C2/fkGWfsWvf3PjxPqdOu5xivBkSkttf/qaJW10OQ6zLKOyv4emaR/8cywmPhAMCAaSXw55ORGhuOBhrB5gpx+Y50YjXux/VfLy+n0uPefX1WFckjp6ma55ldi8M/Ly6W9fvH4RLXpxfp/ym3NJxom1OWOnCNmJaz3fThz3skjbqesW8vKhP59i4gPBgGAge68++HmQlxMPsotTMGft5EPt5bf75w/U15CXH7HPpef8WvJwUero4pTRuyMvN14e+3i/FwRKRbvOIS+vRI6eF00Xzrumk+mpT1+QzL1X6pieH/fVa39BSN84EiUmPhAMCAYEA8lH5INfDHnZO0MSXk9errrPm9W7nHOeJyMVl0Rk3iV5efF382O/fE+dw1nycok/Xpz/8TVdQDxevf7j416y3i/O4bz0oJCXD/9ZFRMfCAYEA+m798EviLycJgS/vQJ5udo+b1rv8sLOISpnHuiXXdfbJC8vfK0iKSdeF85pab5sXU6/dxVCcs5xr5JiEvIyBZ9RMfGBYEAwkL4/H3xENS+/urjm5dzUxYni0ktTEK/f52JCcFXdkpN1I2qfy6/3nZKXk9GWT16Ncrw38vLa2hghLx/+MykmPhAMCAayD+aDj6/b6HXfyM/5Vv/a+onX7PPm9S7nX9+vP3358D4v0vRuycs5Rcun618+YNroUt9J2uiDf07FxAeCAcFA8h588MvQebmo4PUt7XPGjh/cV1PhfXWfi6IL75O8nD6X5wTi7RXsvkynqYLdv7m0YPdlce8rxz1xXUJepuDzKSY+EAwIBtL354OfD3k5fqheSmCu3JXzanvv1TpXLt7nJ9W7/AixuNef41siL69c6wmi8aNbpU+Rr9et31VbpU8dV8jLFHw2xcQHggHBQPr+fPDzIi9vOtvonIf8Scn7q7bdXrTPT6t3Of/4l5Gfd09ezm/TvngG0fkideee2ymRuk9+lEjd+eJ3Ql6m4HMpJj4QDAgG0vfng58feRETHwgGBAOCAcGAYIBfsg+EvEzBIoiJDwQDggHBgGBAMJAJeREQyI1AMCAYEAwIBgQD2UfpA4m8TMEiiIkPBAOCAcGAYEAwkAl5ERDIjUAwIBgQDAgGBAPZR+kDibxMwSKIiQ8EA4IBwYBgQDCQCXkREMiNQDAgGBAMCAYEA9lH6QOJvEzBIoiJDwQDggHBgGBAMJAJeREQyI1AMCAYEAwIBgQD2UfpA4m8TMEiiIkPBAOCAcGAYEAwkAl5ERDIjUAwIBgQDAgGBAPZR+kDibxMwSKIiQ8EA4IBwYBgQDCQCXkREMiNQDAgGBAMCAYEA9lH6QOJvEzBIoiJDwQDggHBgGBAMJAJeREQyI1AMCAYEAwIBgQD2UfpA4m8TMEiiIkPBAOCAcGAYEAwkAl5ERDIjUAwIBgQDAgGBAPZR+kDibxMwSKIiQ8EA4IBwYBgQDCQCXkREMiNQDAgGBAMCAYEA9lH6QOJvEzBIoiJDwQDggHBgGBAMJAJeREQyI1AMCAYEAwIBgQD2UfpA4m8TMEiiIkPBAOCAcGAYEAwkAl5ERDIjUAwIBgQDAgGBAPZR+kDibxMwSKIiQ8EA4IBwYBgQDCQCXkREMiNQDAgGBAMCAYEA9lH6QOJvEzBIoiJDwQDggHBgGBAMJAJeREQyI1AMCAYEAwIBgQD2UfpA4m8TMEiiIkPBAOCAcGAYEAwkAl5ERDIjUAwIBgQDAgGBAPZR+kDibxMwSKIiQ8EA4IBwYBgQDCQCXkREMiNQDAgGBAMCAYEA9lH6QOJvEzBIoiJDwQDggHBgGBAMJAJeREQyI1AMCAYEAwIBgQD2UfpA4m8TMEiiIkPBAOCAcGAYEAwkAl5ERDIjUAwIBgQDAgGBAPZR+mD/x+RKCeGTJpawwAAAABJRU5ErkJggg==;" vertex="1" parent="1">
          <mxGeometry width="559" height="601" as="geometry" />
        </mxCell>
      </root>
    </mxGraphModel>
  </diagram>
</mxfile>
